<svg xmlns="http://www.w3.org/2000/svg" width="18" height="14" viewBox="0 0 18 14">
    <g fill="none" fill-rule="evenodd">
        <g fill="#2F2D51" fill-rule="nonzero">
            <g>
                <path d="M16.918 5.854c-.074-.01-.148-.016-.223-.015H3.997l.277-.117c.27-.116.516-.274.727-.467l3.561-3.23c.47-.405.548-1.059.187-1.547-.42-.52-1.226-.633-1.8-.252-.046.03-.09.064-.132.1l-6.44 5.84c-.503.456-.503 1.196 0 1.652v.001l6.44 5.84c.504.456 1.32.455 1.822-.002.04-.036.076-.074.11-.115.361-.488.282-1.141-.187-1.547L5.008 8.759c-.19-.171-.407-.315-.644-.426l-.387-.158h12.647c.658.022 1.236-.394 1.36-.98.113-.638-.364-1.238-1.066-1.34z" transform="translate(-219 -149) translate(219 149)"/>
            </g>
        </g>
    </g>
</svg>
