<svg width="370" height="208" fill="none" xmlns="http://www.w3.org/2000/svg"><path fill-rule="evenodd" clip-rule="evenodd" d="M78.901 1.333c-5.272 1.572-9.73 4.738-13.424 9.017a38.827 38.827 0 0 0-4.732 6.879l-.132.245a34.636 34.636 0 0 0-.904 1.82l-.066.147-.084-.031c-6.965-2.59-13.146-2.74-18.552-.784-4.623 1.673-8.47 4.798-11.606 8.942a37.31 37.31 0 0 0-4.142 6.973l-.112.248c-.295.656-.55 1.274-.768 1.844l-.11.295h-.006c-7.877-.877-14.254.513-19.178 3.77C-3.392 46.271.6 59.464 10.74 59.464h169.001c.617 0 1.095-.538 1.025-1.15l-.02-.151a17.44 17.44 0 0 0-.138-.815 26.11 26.11 0 0 0-.598-2.444c-.74-2.519-1.84-5.038-3.374-7.395-2.303-3.539-5.382-6.39-9.335-8.288l-.215-.102c-4.461-2.086-9.852-2.884-16.238-2.2l-.102.01-.032-.087a34.322 34.322 0 0 0-.961-2.305 37.41 37.41 0 0 0-4.146-6.976c-3.14-4.149-6.988-7.277-11.611-8.95l-.198-.07c-5.29-1.858-11.314-1.706-18.081.77l-.348.129.028.06a38.98 38.98 0 0 0-5.888-9.155c-1.865-2.153-3.946-4.043-6.251-5.596a.996.996 0 0 0-.109-.064l-2.096-1.065-.056-.026C92.757.005 85.394-.603 78.901 1.333zm21.246 4.141 2.009 1.02-.05-.033c2.147 1.445 4.093 3.214 5.844 5.236a36.944 36.944 0 0 1 4.499 6.515c.422.776.778 1.495 1.069 2.139l.14.315c.043.098.081.19.116.274l.078.192c.207.539.814.803 1.349.587 6.922-2.793 12.919-3.04 18.094-1.168 4.211 1.524 7.752 4.403 10.668 8.256a35.329 35.329 0 0 1 3.915 6.59c.361.787.661 1.515.904 2.167l.117.32.067.19.094.282c.148.479.619.782 1.116.718 6.52-.831 11.889-.078 16.232 2.007 3.595 1.726 6.394 4.318 8.5 7.554 1.416 2.176 2.437 4.514 3.124 6.852l.07.243c.137.483.253.943.35 1.377l.063.295H10.741c-8.097 0-11.286-10.534-4.52-14.983 4.67-3.09 10.826-4.357 18.616-3.345.477.062.931-.214 1.098-.66l.084-.254.063-.18c.033-.095.07-.197.11-.305l.04-.11c.243-.652.543-1.38.902-2.166a35.265 35.265 0 0 1 3.911-6.586c2.913-3.848 6.452-6.724 10.664-8.248 5.176-1.873 11.177-1.63 18.107 1.155a1.031 1.031 0 0 0 1.348-.59l.077-.192.075-.178a32.566 32.566 0 0 1 1.243-2.549 36.78 36.78 0 0 1 4.479-6.513c3.454-4 7.591-6.94 12.453-8.389 5.941-1.772 12.72-1.237 20.417 2.062l.239.103zM182.316 153.471a1.03 1.03 0 0 1 1.444.201 1.03 1.03 0 0 1-.201 1.444 30.179 30.179 0 0 0-4.648 4.393 36.648 36.648 0 0 0-5.418 8.41l-.088.194c-.083.185-.156.352-.218.499l-.085.208a1.345 1.345 0 0 0-.027.07 1.031 1.031 0 0 1-1.348.59c-6.93-2.785-12.931-3.028-18.107-1.155-4.212 1.524-7.751 4.399-10.664 8.247a35.29 35.29 0 0 0-3.911 6.587 32.852 32.852 0 0 0-.827 1.967l-.075.198c-.042.113-.081.219-.116.319l-.147.431-.014.041a1.03 1.03 0 0 1-1.118.719c-7.79-1.012-13.946.255-18.615 3.343-6.675 4.41-3.63 14.775 4.277 14.982l.242.003H290.39l-.016-.078a24.303 24.303 0 0 0-.398-1.591l-.07-.243c-.689-2.335-1.711-4.671-3.128-6.845-4.295-6.589-11.214-10.343-21.506-9.839a1.031 1.031 0 1 1-.101-2.06c11.044-.541 18.649 3.585 23.334 10.773 1.535 2.355 2.637 4.871 3.379 7.388.26.882.457 1.702.6 2.441l.054.292c.054.303.087.53.104.674a1.032 1.032 0 0 1-.963 1.149l-.061.001H122.652c-10.131 0-14.105-13.185-5.656-18.767 4.865-3.218 11.149-4.613 18.897-3.8l.286.031.032-.084c.233-.627.515-1.317.847-2.056l.112-.248a37.299 37.299 0 0 1 4.142-6.972c3.137-4.144 6.983-7.27 11.606-8.942 5.337-1.932 11.431-1.811 18.288.686l.348.129.064-.141c.257-.56.556-1.167.899-1.812l.131-.243a38.698 38.698 0 0 1 4.701-6.843 32.248 32.248 0 0 1 4.967-4.691zM267.528 61.344c6.421-1.915 13.694-1.34 21.825 2.145l.271.117.055.026 2.097 1.066c.037.019.074.04.109.064 2.305 1.552 4.385 3.442 6.251 5.596a39.033 39.033 0 0 1 5.792 8.946l.068.148.084-.032c6.874-2.568 12.986-2.749 18.345-.867l.198.07c4.623 1.673 8.471 4.802 11.611 8.95a37.35 37.35 0 0 1 4.145 6.977c.344.75.637 1.452.882 2.093l.112.299.102-.011c6.386-.683 11.777.115 16.237 2.2l.215.102c3.954 1.899 7.033 4.75 9.336 8.289 1.534 2.357 2.634 4.876 3.374 7.394.259.883.455 1.704.597 2.444l.055.293c.053.302.087.53.103.674a1.03 1.03 0 0 1-.963 1.147l-.061.002H267.456a1.032 1.032 0 0 1-.061-2.061l.061-.001 99.685-.001-.016-.08a25.069 25.069 0 0 0-.396-1.592l-.071-.243c-.687-2.338-1.707-4.675-3.124-6.851-2.106-3.237-4.905-5.829-8.499-7.555-4.344-2.085-9.713-2.838-16.233-2.006a1.03 1.03 0 0 1-1.095-.66l-.085-.254c-.058-.17-.129-.37-.213-.596a32.544 32.544 0 0 0-.904-2.167 35.386 35.386 0 0 0-3.915-6.59c-2.917-3.854-6.457-6.732-10.669-8.256-5.175-1.873-11.172-1.626-18.093 1.168-.516.208-1.1-.03-1.326-.53l-.101-.25-.075-.178a32.401 32.401 0 0 0-1.251-2.55 36.937 36.937 0 0 0-4.498-6.515c-1.675-1.934-3.529-3.636-5.565-5.045l-.229-.157-2.009-1.02-.239-.104c-7.61-3.261-14.32-3.82-20.213-2.122l-.205.06c-4.861 1.45-8.998 4.389-12.453 8.39a36.745 36.745 0 0 0-5.542 8.65l-.095.215-.085.196-.145.352-.007.018a1.03 1.03 0 0 1-1.348.59c-6.93-2.784-12.931-3.027-18.107-1.154-4.212 1.523-7.751 4.399-10.663 8.247a35.28 35.28 0 0 0-3.911 6.587 32.908 32.908 0 0 0-.828 1.967l-.074.197-.117.32-.147.43-.013.042a1.03 1.03 0 0 1-1.118.718c-7.79-1.012-13.947.256-18.615 3.344a1.031 1.031 0 0 1-1.138-1.72c4.866-3.218 11.15-4.613 18.898-3.8l.286.03.031-.083c.234-.628.515-1.317.847-2.056l.113-.248a37.302 37.302 0 0 1 4.141-6.973c3.137-4.144 6.984-7.269 11.607-8.942 5.337-1.93 11.43-1.81 18.288.687l.347.128.067-.146c.258-.563.559-1.173.904-1.821l.131-.245a38.903 38.903 0 0 1 4.732-6.878c3.695-4.28 8.153-7.446 13.425-9.018z" fill="#2F2D51"/><path fill-rule="evenodd" clip-rule="evenodd" d="M231.091 103.012c1.856 0 3.712.103 5.5.31V42.211c0-3.369-2.75-6.118-6.118-6.118H70.133c-3.368 0-6.118 2.75-6.118 6.117v95.345c0 3.368 2.75 6.118 6.118 6.118h113.389c3.609-23.029 23.51-40.661 47.569-40.661z" fill="#00B2FD"/><path fill-rule="evenodd" clip-rule="evenodd" d="M231.594 38.405a1.03 1.03 0 0 1 1.313 1.589l-.05.041-78.74 61.04c-2.228 1.742-5.234 1.769-7.483.085l-.108-.082-78.743-61.043a1.031 1.031 0 0 1 1.21-1.668l.053.038 78.747 61.045c1.487 1.163 3.456 1.186 4.965.068l.092-.07 78.744-61.043z" fill="#2F2D51"/><path fill-rule="evenodd" clip-rule="evenodd" d="M114.612 74.845a1.031 1.031 0 0 1 1.484 1.43l-.047.049-49.46 48.084a1.031 1.031 0 0 1-1.484-1.429l.047-.049 49.46-48.085zM184.983 74.865a1.031 1.031 0 0 1 1.408-.065l.05.046 30.315 29.524a1.03 1.03 0 0 1-1.389 1.523l-.05-.045-30.315-29.525a1.031 1.031 0 0 1-.019-1.458z" fill="#2F2D51"/><path fill-rule="evenodd" clip-rule="evenodd" d="M231.091 101.981c-27.164 0-49.184 22.021-49.184 49.185s22.02 49.184 49.184 49.184c27.164 0 49.185-22.02 49.185-49.184 0-27.164-22.021-49.185-49.185-49.185zm0 2.062c26.025 0 47.122 21.098 47.122 47.123s-21.097 47.122-47.122 47.122-47.122-21.097-47.122-47.122 21.097-47.123 47.122-47.123z" fill="#2F2D51"/><path fill-rule="evenodd" clip-rule="evenodd" d="M269.002 105.246a4.284 4.284 0 0 0-5.878 1.375l-10.517 16.911c-6.255-5.053-14.195-8.078-22.822-8.078-20.073 0-36.399 16.327-36.399 36.399 0 20.073 16.326 36.399 36.399 36.399 20.072 0 36.398-16.326 36.398-36.399 0-8.283-2.784-15.914-7.458-22.066l11.617-18.698a4.203 4.203 0 0 0-1.34-5.843zm-5.5 46.607c0 18.595-15.123 33.718-33.717 33.718-18.595 0-33.718-15.123-33.718-33.718 0-18.594 15.123-33.718 33.718-33.718 8.111 0 15.57 2.888 21.378 7.665l-19.041 30.624-11.033-14.676c-1.409-1.89-4.09-2.268-5.981-.859-1.89 1.409-2.268 4.09-.859 5.98l14.78 19.66c.825 1.066 2.062 1.719 3.402 1.719h.172a4.354 4.354 0 0 0 3.437-1.994l21.138-33.958a33.225 33.225 0 0 1 6.324 19.557z" fill="#2F2D51"/></svg>