<svg xmlns="http://www.w3.org/2000/svg" width="24" height="24" viewBox="0 0 24 24">
	<path fill="#2F2D51" d="M16.661 4.004L14.502 4c-2.425 0-3.992 1.642-3.992 4.184v1.929H8.34c-.188 0-.34.155-.34.347v2.794c0 .192.152.347.34.347h2.17v7.052c0 .192.152.347.34.347h2.831c.188 0 .34-.155.34-.347v-7.052h2.537c.188 0 .34-.155.34-.347V10.46c0-.092-.035-.18-.099-.246-.063-.065-.15-.101-.24-.101h-2.538V8.477c0-.785.183-1.184 1.186-1.184l1.454-.001c.187 0 .339-.155.339-.347V4.35c0-.191-.152-.346-.339-.346z" transform="translate(-514 -3258) translate(514 3258)" />
</svg>
