<svg xmlns="http://www.w3.org/2000/svg" width="24" height="24" viewBox="0 0 24 24">
	<g fill="#2F2D51">
		<path d="M18.29 18.295h.005v-6.71c0-3.283-.706-5.811-4.544-5.811-1.844 0-3.082 1.012-3.588 1.972h-.053V6.08H6.47v12.215h3.789v-6.048c0-1.593.302-3.133 2.274-3.133 1.943 0 1.972 1.818 1.972 3.235v5.946h3.785zM.302 6.081L4.095 6.081 4.095 18.295.302 18.295zM2.197 0C.984 0 0 .984 0 2.197s.984 2.218 2.197 2.218S4.394 3.41 4.394 2.197 3.409 0 2.197 0z" transform="translate(-550 -3258) translate(550 3258) translate(3 3)" />
	</g>
</svg>
