<svg xmlns="http://www.w3.org/2000/svg" width="125" height="33" viewBox="0 0 125 33">
    <g fill="none" fill-rule="evenodd">
        <path fill="#21273B" d="M0.328 9.401L0.328 30.204 4.747 30.204 4.706 9.401z" transform="translate(1 1)"/>
        <path stroke="#21273B" stroke-width=".3" d="M0.328 9.401L0.328 30.204 4.747 30.204 4.706 9.401z" transform="translate(1 1)"/>
        <path fill="#21273B" d="M0.203 5.941L4.873 5.941 4.873 1.982 0.203 1.982z" transform="translate(1 1)"/>
        <path stroke="#21273B" stroke-width=".3" d="M0.203 5.941L4.873 5.941 4.873 1.982 0.203 1.982z" transform="translate(1 1)"/>
        <path fill="#21273B" d="M20.756 8.818c-1.64 0-3.356.202-5.149.605-1.793.403-3.314.923-4.565 1.563v19.219h4.377V13.362c1.446-.527 2.96-.792 4.544-.792 3.308 0 4.961 1.459 4.961 4.378v13.257h4.378V16.363c0-2.584-.696-4.488-2.085-5.711-1.39-1.222-3.543-1.834-6.46-1.834" transform="translate(1 1)"/>
        <path stroke="#21273B" stroke-width=".3" d="M20.756 8.818c-1.64 0-3.356.202-5.149.605-1.793.403-3.314.923-4.565 1.563v19.219h4.377V13.362c1.446-.527 2.96-.792 4.544-.792 3.308 0 4.961 1.459 4.961 4.378v13.257h4.378V16.363c0-2.584-.696-4.488-2.085-5.711-1.39-1.222-3.543-1.834-6.46-1.834z" transform="translate(1 1)"/>
        <path fill="#21273B" d="M40.307 25.013c-1.055-1.15-1.584-2.98-1.584-5.481 0-2.39.542-4.134 1.626-5.231 1.083-1.098 2.723-1.648 4.92-1.648 1.75 0 3.681.445 5.794 1.335v-3.92c-2.03-.832-4.169-1.25-6.42-1.25-2.974 0-5.426.87-7.358 2.605-1.932 1.737-2.898 4.552-2.898 8.442 0 3.78.98 6.518 2.94 8.213 1.959 1.696 4.411 2.542 7.358 2.542 2.279 0 4.418-.443 6.42-1.332v-3.92c-1.917.917-3.822 1.376-5.71 1.376-2.336 0-4.032-.576-5.088-1.73" transform="translate(1 1)"/>
        <path stroke="#21273B" stroke-width=".3" d="M40.307 25.013c-1.055-1.15-1.584-2.98-1.584-5.481 0-2.39.542-4.134 1.626-5.231 1.083-1.098 2.723-1.648 4.92-1.648 1.75 0 3.681.445 5.794 1.335v-3.92c-2.03-.832-4.169-1.25-6.42-1.25-2.974 0-5.426.87-7.358 2.605-1.932 1.737-2.898 4.552-2.898 8.442 0 3.78.98 6.518 2.94 8.213 1.959 1.696 4.411 2.542 7.358 2.542 2.279 0 4.418-.443 6.42-1.332v-3.92c-1.917.917-3.822 1.376-5.71 1.376-2.336 0-4.032-.576-5.088-1.73z" transform="translate(1 1)"/>
        <path fill="#21273B" d="M65.07 27.12c-1.973 0-3.412-.633-4.314-1.898-.904-1.264-1.356-3.09-1.356-5.482 0-2.39.439-4.203 1.314-5.44.875-1.236 2.326-1.856 4.356-1.856 2 0 3.46.605 4.377 1.814.917 1.21 1.376 3.037 1.376 5.482 0 4.92-1.917 7.38-5.753 7.38m0-18.344c-6.671 0-10.006 3.655-10.006 10.964 0 3.614.841 6.366 2.523 8.256 1.681 1.888 4.19 2.833 7.524 2.833 3.224 0 5.712-.958 7.463-2.875 1.75-1.92 2.626-4.655 2.626-8.214 0-3.557-.848-6.275-2.542-8.15-1.697-1.876-4.226-2.814-7.588-2.814" transform="translate(1 1)"/>
        <path stroke="#21273B" stroke-width=".3" d="M65.07 27.12c-1.973 0-3.412-.633-4.314-1.898-.904-1.264-1.356-3.09-1.356-5.482 0-2.39.439-4.203 1.314-5.44.875-1.236 2.326-1.856 4.356-1.856 2 0 3.46.605 4.377 1.814.917 1.21 1.376 3.037 1.376 5.482 0 4.92-1.917 7.38-5.753 7.38zm0-18.344c-6.671 0-10.006 3.655-10.006 10.964 0 3.614.841 6.366 2.523 8.256 1.681 1.888 4.19 2.833 7.524 2.833 3.224 0 5.712-.958 7.463-2.875 1.75-1.92 2.626-4.655 2.626-8.214 0-3.557-.848-6.275-2.542-8.15-1.697-1.876-4.226-2.814-7.588-2.814z" transform="translate(1 1)"/>
        <path fill="#21273B" d="M94.17 25.369c0 .5-.439.903-1.315 1.21-.874.305-1.953.457-3.23.457-2.224 0-3.78-.66-4.669-1.98-.89-1.32-1.335-3.147-1.335-5.482 0-4.696 1.973-7.046 5.92-7.046.778 0 1.577.105 2.397.313.821.208 1.565.508 2.231.897v11.63zm0-15.426c-.78-.387-1.662-.68-2.648-.875-.987-.194-1.855-.292-2.606-.292-3.225 0-5.655.945-7.295 2.835-1.64 1.89-2.46 4.516-2.46 7.88 0 4.196.96 7.135 2.876 8.817 1.918 1.681 4.364 2.52 7.338 2.52 1.473 0 2.904-.18 4.294-.54 1.389-.362 2.543-.924 3.46-1.688.918-.765 1.376-1.703 1.376-2.814V.522h-4.336v9.42z" transform="translate(1 1)"/>
        <path stroke="#21273B" stroke-width=".3" d="M94.17 25.369c0 .5-.439.903-1.315 1.21-.874.305-1.953.457-3.23.457-2.224 0-3.78-.66-4.669-1.98-.89-1.32-1.335-3.147-1.335-5.482 0-4.696 1.973-7.046 5.92-7.046.778 0 1.577.105 2.397.313.821.208 1.565.508 2.231.897v11.63zm0-15.426c-.78-.387-1.662-.68-2.648-.875-.987-.194-1.855-.292-2.606-.292-3.225 0-5.655.945-7.295 2.835-1.64 1.89-2.46 4.516-2.46 7.88 0 4.196.96 7.135 2.876 8.817 1.918 1.681 4.364 2.52 7.338 2.52 1.473 0 2.904-.18 4.294-.54 1.389-.362 2.543-.924 3.46-1.688.918-.765 1.376-1.703 1.376-2.814V.522h-4.336v9.42z" transform="translate(1 1)"/>
        <path fill="#21273B" d="M107.732 17.49c.25-1.862.793-3.182 1.626-3.96.834-.78 1.986-1.168 3.46-1.168 1.556 0 2.737.41 3.544 1.23.805.82 1.306 2.119 1.501 3.897h-10.131zm12.36-5.566c-1.514-2.098-3.897-3.148-7.15-3.148-3.083 0-5.475.952-7.17 2.855-1.695 1.905-2.542 4.649-2.542 8.235 0 3.501.896 6.205 2.69 8.107 1.792 1.905 4.257 2.856 7.399 2.856 2.807 0 5.294-.473 7.463-1.418v-4.084c-.89.5-1.919.911-3.086 1.23-1.168.32-2.39.478-3.668.478-1.974 0-3.496-.534-4.566-1.603-1.07-1.07-1.674-2.634-1.813-4.691h14.674c.028-3.78-.716-6.719-2.23-8.817z" transform="translate(1 1)"/>
        <path stroke="#21273B" stroke-width=".3" d="M107.732 17.49c.25-1.862.793-3.182 1.626-3.96.834-.78 1.986-1.168 3.46-1.168 1.556 0 2.737.41 3.544 1.23.805.82 1.306 2.119 1.501 3.897h-10.131zm12.36-5.566c-1.514-2.098-3.897-3.148-7.15-3.148-3.083 0-5.475.952-7.17 2.855-1.695 1.905-2.542 4.649-2.542 8.235 0 3.501.896 6.205 2.69 8.107 1.792 1.905 4.257 2.856 7.399 2.856 2.807 0 5.294-.473 7.463-1.418v-4.084c-.89.5-1.919.911-3.086 1.23-1.168.32-2.39.478-3.668.478-1.974 0-3.496-.534-4.566-1.603-1.07-1.07-1.674-2.634-1.813-4.691h14.674c.028-3.78-.716-6.719-2.23-8.817z" transform="translate(1 1)"/>
    </g>
</svg>