<svg width="171" height="33" fill="none" xmlns="http://www.w3.org/2000/svg"><path fill-rule="evenodd" clip-rule="evenodd" d="M1.11 8.707v18.056h3.835L4.909 8.707h-3.8z" fill="#21273B"/><path clip-rule="evenodd" d="M1.11 8.707v18.056h3.835L4.909 8.707h-3.8z" stroke="#21273B" stroke-width=".402"/><path fill-rule="evenodd" clip-rule="evenodd" d="M1 5.703h4.054V2.267H1v3.436z" fill="#21273B"/><path clip-rule="evenodd" d="M1 5.703h4.054V2.267H1v3.436z" stroke="#21273B" stroke-width=".402"/><path fill-rule="evenodd" clip-rule="evenodd" d="M18.84 8.2c-1.424 0-2.913.176-4.469.525-1.556.35-2.877.802-3.963 1.357v16.682h3.8v-14.62a11.416 11.416 0 0 1 3.944-.687c2.871 0 4.306 1.266 4.306 3.8v11.507h3.8V14.75c0-2.244-.604-3.896-1.81-4.957S21.373 8.2 18.84 8.2" fill="#21273B"/><path clip-rule="evenodd" d="M18.84 8.2c-1.424 0-2.913.176-4.469.525-1.556.35-2.877.802-3.963 1.357v16.682h3.8v-14.62a11.416 11.416 0 0 1 3.944-.687c2.871 0 4.306 1.266 4.306 3.8v11.507h3.8V14.75c0-2.244-.604-3.896-1.81-4.957S21.373 8.2 18.84 8.2z" stroke="#21273B" stroke-width=".402"/><path fill-rule="evenodd" clip-rule="evenodd" d="M35.81 22.258c-.916-1-1.374-2.587-1.374-4.758 0-2.074.47-3.588 1.41-4.54.941-.954 2.364-1.43 4.27-1.43 1.52 0 3.196.386 5.03 1.158V9.286A14.526 14.526 0 0 0 39.575 8.2c-2.581 0-4.71.755-6.387 2.261-1.677 1.509-2.515 3.951-2.515 7.329 0 3.28.85 5.657 2.551 7.128 1.7 1.472 3.83 2.207 6.387 2.207 1.978 0 3.835-.385 5.572-1.157v-3.401c-1.663.795-3.317 1.193-4.956 1.193-2.027 0-3.5-.5-4.416-1.502" fill="#21273B"/><path clip-rule="evenodd" d="M35.81 22.258c-.916-1-1.374-2.587-1.374-4.758 0-2.074.47-3.588 1.41-4.54.941-.954 2.364-1.43 4.27-1.43 1.52 0 3.196.386 5.03 1.158V9.286A14.526 14.526 0 0 0 39.575 8.2c-2.581 0-4.71.755-6.387 2.261-1.677 1.509-2.515 3.951-2.515 7.329 0 3.28.85 5.657 2.551 7.128 1.7 1.472 3.83 2.207 6.387 2.207 1.978 0 3.835-.385 5.572-1.157v-3.401c-1.663.795-3.317 1.193-4.956 1.193-2.027 0-3.5-.5-4.416-1.502z" stroke="#21273B" stroke-width=".402"/><path fill-rule="evenodd" clip-rule="evenodd" d="M57.304 24.087c-1.712 0-2.962-.55-3.744-1.648-.785-1.097-1.178-2.683-1.178-4.758 0-2.074.382-3.648 1.14-4.722.76-1.073 2.02-1.611 3.782-1.611 1.736 0 3.003.525 3.8 1.575.796 1.05 1.194 2.635 1.194 4.758 0 4.27-1.665 6.405-4.994 6.405m0-15.922c-5.79 0-8.685 3.173-8.685 9.517 0 3.136.73 5.525 2.19 7.166 1.46 1.638 3.637 2.459 6.53 2.459 2.799 0 4.959-.832 6.478-2.496 1.52-1.666 2.28-4.04 2.28-7.13 0-3.086-.736-5.446-2.207-7.073-1.473-1.629-3.668-2.443-6.586-2.443" fill="#21273B"/><path d="m53.56 22.439.163-.117-.163.117zm-2.75 2.408-.151.133.15-.133zm13.007-.037.149.135-.149-.135zm.073-14.203.15-.135-.15.135zm-6.586 13.279c-1.667 0-2.846-.532-3.58-1.564l-.328.234c.83 1.165 2.15 1.732 3.908 1.732v-.402zm-3.581-1.564c-.75-1.049-1.14-2.586-1.14-4.641h-.401c0 2.096.395 3.73 1.214 4.875l.327-.234zm-1.14-4.641c0-2.055.379-3.58 1.104-4.606l-.328-.232c-.794 1.122-1.178 2.744-1.178 4.838h.402zm1.104-4.606c.71-1.003 1.896-1.526 3.617-1.526v-.402c-1.803 0-3.136.553-3.945 1.696l.328.232zm3.617-1.526c1.695 0 2.893.51 3.64 1.495l.32-.243c-.846-1.115-2.183-1.654-3.96-1.654v.402zm3.64 1.495c.757 1 1.153 2.534 1.153 4.637h.402c0-2.142-.401-3.78-1.235-4.88l-.32.243zm1.153 4.637c0 2.114-.413 3.663-1.206 4.68-.786 1.008-1.969 1.525-3.587 1.525v.402c1.71 0 3.025-.552 3.904-1.68.872-1.118 1.29-2.772 1.29-4.927h-.4zm-4.793-9.718c-2.931 0-5.165.804-6.662 2.445-1.494 1.638-2.224 4.074-2.224 7.273h.402c0-3.146.718-5.467 2.119-7.002 1.397-1.531 3.506-2.314 6.365-2.314v-.402zm-8.886 9.718c0 3.165.736 5.609 2.241 7.3l.3-.268c-1.416-1.59-2.139-3.924-2.139-7.032h-.401zm2.241 7.3c1.509 1.693 3.748 2.526 6.68 2.526v-.402c-2.855 0-4.97-.808-6.38-2.392l-.3.267zm6.68 2.526c2.84 0 5.06-.846 6.627-2.562l-.297-.27c-1.472 1.612-3.573 2.43-6.33 2.43v.402zm6.627-2.562c1.564-1.714 2.332-4.144 2.332-7.264h-.402c0 3.057-.752 5.377-2.227 6.993l.297.271zm2.332-7.264c0-3.117-.743-5.532-2.259-7.209l-.298.27c1.426 1.577 2.155 3.881 2.155 6.939h.402zm-2.259-7.209c-1.522-1.683-3.78-2.509-6.735-2.509v.402c2.881 0 5.014.803 6.437 2.377l.298-.27z" fill="#21273B"/><path fill-rule="evenodd" clip-rule="evenodd" d="M82.562 22.566c0 .435-.38.785-1.14 1.05-.76.266-1.696.398-2.804.398-1.93 0-3.282-.573-4.053-1.72-.773-1.144-1.158-2.73-1.158-4.757 0-4.076 1.712-6.116 5.137-6.116.676 0 1.37.09 2.082.271a7.49 7.49 0 0 1 1.936.779v10.095zm0-13.39a9.096 9.096 0 0 0-2.298-.759c-.856-.168-1.61-.253-2.262-.253-2.799 0-4.909.82-6.332 2.461-1.423 1.64-2.135 3.92-2.135 6.84 0 3.642.833 6.193 2.497 7.653 1.664 1.459 3.787 2.188 6.369 2.188 1.278 0 2.52-.157 3.727-.469 1.205-.315 2.207-.803 3.003-1.465.796-.665 1.194-1.48 1.194-2.443V1h-3.763v8.177z" fill="#21273B"/><path d="m81.421 23.616-.066-.19.066.19zm-6.856-1.322.167-.112-.167.112zm6.06-10.602.05-.195-.05.195zm1.937.779h.201v-.116l-.1-.058-.1.174zm0-3.294-.09.18.29.144v-.324h-.2zm-2.298-.76.039-.197-.04.197zm-8.232 16.7-.133.152.133-.151zm10.096 1.72.05.195-.05-.195zm3.003-1.465.129.154-.129-.154zM86.325 1h.2V.8h-.2V1zm-3.763 0V.8h-.2V1h.2zm-.2 21.566c0 .15-.064.296-.221.44-.162.15-.419.292-.786.42l.133.38c.393-.137.707-.303.925-.504.223-.205.35-.452.35-.736h-.402zm-1.007.86c-.731.256-1.643.387-2.737.387v.402c1.123 0 2.083-.134 2.87-.41l-.133-.378zm-2.737.387c-1.893 0-3.166-.56-3.886-1.63l-.334.224c.822 1.222 2.252 1.808 4.22 1.808v-.402zm-3.886-1.631c-.743-1.099-1.124-2.64-1.124-4.645h-.402c0 2.049.388 3.68 1.193 4.87l.332-.225zm-1.124-4.645c0-2.015.423-3.489 1.237-4.457.808-.962 2.028-1.458 3.7-1.458v-.402c-1.754 0-3.103.524-4.008 1.601-.9 1.07-1.331 2.655-1.331 4.716h.401zm4.936-5.915c.658 0 1.335.088 2.032.265l.099-.39a8.652 8.652 0 0 0-2.13-.277v.402zm2.032.265c.696.177 1.324.43 1.885.758l.202-.348a7.69 7.69 0 0 0-1.988-.8l-.099.39zm1.785.584v10.095h.402V12.471h-.402zm.29-3.474a9.297 9.297 0 0 0-2.348-.777l-.078.395c.84.165 1.59.415 2.248.742l.178-.36zm-2.349-.777c-.864-.17-1.632-.257-2.3-.257v.402c.635 0 1.375.083 2.223.25l.077-.395zm-2.3-.257c-2.84 0-5.012.834-6.484 2.53l.304.264c1.374-1.585 3.421-2.392 6.18-2.392v-.402zm-6.484 2.53c-1.464 1.688-2.184 4.02-2.184 6.971h.402c0-2.887.703-5.114 2.086-6.707l-.304-.264zm-2.184 6.971c0 3.665.836 6.288 2.565 7.805l.265-.302c-1.599-1.404-2.428-3.882-2.428-7.503h-.402zm2.565 7.805c1.707 1.496 3.88 2.238 6.502 2.238v-.402c-2.542 0-4.615-.717-6.237-2.139l-.265.303zm6.502 2.238a15.01 15.01 0 0 0 3.777-.476l-.1-.389c-1.19.309-2.416.463-3.677.463v.402zm3.777-.476c1.228-.32 2.259-.82 3.082-1.505l-.257-.309c-.77.64-1.743 1.117-2.926 1.426l.101.388zm3.082-1.505c.838-.7 1.266-1.569 1.266-2.597h-.402c0 .9-.367 1.658-1.121 2.288l.257.309zm1.266-2.597V1h-.402v21.929h.402zM86.325.799h-3.763v.402h3.763V.799zM82.361 1v8.177h.402V1h-.402z" fill="#21273B"/><path fill-rule="evenodd" clip-rule="evenodd" d="M94.334 15.727c.217-1.616.688-2.761 1.412-3.436.723-.677 1.724-1.014 3.003-1.014 1.35 0 2.376.355 3.076 1.067.699.712 1.133 1.84 1.303 3.383h-8.794zm10.729-4.83c-1.315-1.822-3.383-2.733-6.206-2.733-2.677 0-4.753.827-6.224 2.478-1.471 1.654-2.206 4.035-2.206 7.148 0 3.039.778 5.386 2.334 7.037 1.556 1.653 3.696 2.479 6.423 2.479 2.436 0 4.595-.41 6.477-1.23V22.53c-.772.434-1.665.79-2.678 1.067a11.983 11.983 0 0 1-3.184.416c-1.714 0-3.035-.464-3.964-1.392-.928-.929-1.453-2.286-1.573-4.072H107c.025-3.28-.621-5.831-1.936-7.653z" fill="#21273B"/><path d="m94.334 15.727-.2-.027-.03.228h.23v-.201zm1.412-3.436.137.146-.137-.146zm6.079.053.143-.141-.143.14zm1.303 3.383v.201h.224l-.025-.223-.199.022zm1.935-4.83.163-.119-.163.118zm-12.43-.255-.15-.133.15.133zm.128 14.185.146-.138-.146.138zm12.9 1.248.08.185.121-.053v-.132h-.201zm0-3.545h.201v-.343l-.299.168.098.175zm-2.678 1.067-.053-.193h-.001l.054.194zm-7.148-.976-.142.142.142-.142zm-1.573-4.072v-.2h-.215l.015.214.2-.014zm12.737 0v.201h.2l.001-.2h-.201zm-12.466-2.795c.215-1.597.676-2.688 1.35-3.316l-.274-.294c-.774.721-1.254 1.922-1.474 3.556l.398.054zm1.35-3.317c.676-.632 1.622-.96 2.866-.96v-.401c-1.315 0-2.37.347-3.14 1.068l.274.293zm2.866-.96c1.316 0 2.282.346 2.932 1.008l.287-.282c-.75-.762-1.835-1.127-3.219-1.127v.401zm2.932 1.007c.655.667 1.08 1.743 1.247 3.265l.399-.044c-.171-1.565-.615-2.744-1.359-3.502l-.287.281zm1.447 3.042h-8.794v.402h8.794v-.402zm2.098-4.748c-1.362-1.886-3.5-2.815-6.369-2.815v.402c2.777 0 4.776.893 6.043 2.649l.326-.236zm-6.369-2.815c-2.721 0-4.857.842-6.374 2.546l.3.267c1.425-1.6 3.441-2.41 6.074-2.41v-.403zm-6.374 2.546c-1.515 1.703-2.257 4.139-2.257 7.281h.401c0-3.084.729-5.41 2.157-7.014l-.3-.267zm-2.257 7.281c0 3.072.787 5.475 2.389 7.175l.292-.276c-1.51-1.603-2.28-3.893-2.28-6.899h-.401zm2.388 7.175c1.602 1.701 3.8 2.542 6.57 2.542v-.402c-2.684 0-4.766-.811-6.277-2.416l-.293.276zm6.57 2.542c2.459 0 4.645-.414 6.557-1.247l-.16-.369c-1.853.808-3.983 1.214-6.397 1.214v.402zm6.678-1.432V22.53h-.402v3.545h.402zm-.299-3.72c-.756.424-1.633.776-2.633 1.049l.105.387c1.027-.28 1.935-.643 2.725-1.085l-.197-.35zm-2.634 1.049c-.995.273-2.038.408-3.13.408v.402c1.125 0 2.204-.14 3.237-.423l-.107-.387zm-3.13.408c-1.677 0-2.94-.453-3.822-1.333l-.284.284c.977.976 2.356 1.451 4.106 1.451v-.402zm-3.822-1.333c-.883-.884-1.396-2.188-1.514-3.943l-.401.027c.122 1.817.657 3.226 1.631 4.2l.285-.284zm-1.715-3.729H107v-.401H94.262v.401zm12.938-.2c.025-3.304-.625-5.902-1.974-7.772l-.326.236c1.281 1.774 1.923 4.277 1.898 7.534l.402.003z" fill="#21273B"/><path d="M117 7.414h7.038c1.858 0 3.312.488 4.361 1.463 1.067.975 1.601 2.245 1.601 3.809 0 .993-.267 1.876-.801 2.65-.533.754-1.214 1.269-2.042 1.545.993.239 1.812.782 2.456 1.628.663.828.994 1.831.994 3.009 0 1.6-.552 2.916-1.656 3.946-1.104 1.012-2.567 1.518-4.389 1.518H117V7.414zm3.754 8.087h2.704c.865 0 1.546-.221 2.043-.663.497-.441.745-1.04.745-1.794s-.248-1.343-.745-1.766c-.479-.442-1.169-.662-2.07-.662h-2.677V15.5zm0 8.307h3.091c.92 0 1.637-.22 2.153-.662.533-.46.8-1.086.8-1.877 0-.791-.258-1.426-.773-1.904-.497-.479-1.205-.718-2.125-.718h-3.146v5.161zM137.241 26.982h-3.671V7h3.671v19.982zM144.814 23.036a3.346 3.346 0 0 0 2.456 1.02c.957 0 1.766-.34 2.429-1.02.681-.681 1.021-1.629 1.021-2.843 0-1.215-.34-2.162-1.021-2.843-.663-.68-1.472-1.021-2.429-1.021-.957 0-1.776.34-2.456 1.021-.663.68-.994 1.628-.994 2.843 0 1.214.331 2.162.994 2.843zm-2.65-8.004c1.362-1.362 3.064-2.043 5.106-2.043s3.735.681 5.078 2.043c1.362 1.361 2.043 3.082 2.043 5.16 0 2.08-.681 3.8-2.043 5.162-1.343 1.362-3.036 2.042-5.078 2.042-2.042 0-3.744-.68-5.106-2.042-1.343-1.362-2.015-3.082-2.015-5.161 0-2.08.672-3.8 2.015-5.161zM156.322 27.728l3.312-.884c.129.755.479 1.371 1.049 1.85.571.478 1.279.717 2.125.717 2.411 0 3.616-1.26 3.616-3.781v-.994c-.313.497-.791.911-1.435 1.242-.644.332-1.426.497-2.346.497-1.803 0-3.312-.625-4.527-1.877-1.196-1.25-1.794-2.824-1.794-4.72 0-1.84.598-3.403 1.794-4.691 1.196-1.288 2.705-1.932 4.527-1.932.993 0 1.821.184 2.484.552.662.35 1.122.782 1.38 1.297v-1.6h3.533V25.52c0 2.042-.589 3.735-1.767 5.078-1.177 1.362-2.962 2.042-5.354 2.042-1.785 0-3.285-.478-4.499-1.435-1.196-.957-1.895-2.116-2.098-3.477zm6.956-4.5c.938 0 1.702-.312 2.29-.938.608-.625.911-1.462.911-2.511 0-1.03-.313-1.859-.938-2.484-.607-.626-1.362-.939-2.263-.939-.939 0-1.721.313-2.346.939-.608.625-.911 1.453-.911 2.484 0 1.049.303 1.886.911 2.511.607.626 1.389.939 2.346.939z" fill="#00B2FD"/></svg>