<svg xmlns="http://www.w3.org/2000/svg" xmlns:xlink="http://www.w3.org/1999/xlink" width="43" height="44"><defs><path id="a" d="M20.552.05C9.033.516.01 9.997 0 21.42v.033c0 .288.006.578.018.868.468 11.521 9.951 20.546 21.375 20.553h.028c.289 0 .578-.007.87-.018 11.82-.48 21.013-10.452 20.533-22.273C42.357 9.06 32.866.031 21.436.031c-.293 0-.588.006-.884.018"/></defs><g fill="none" fill-rule="evenodd"><g transform="translate(0 .092)"><mask id="b" fill="#fff"><use xlink:href="#a"/></mask><path fill="#636670" d="M20.552.05C9.033.516.01 9.997 0 21.42v.033c0 .288.006.578.018.868.468 11.521 9.951 20.546 21.375 20.553h.028c.289 0 .578-.007.87-.018 11.82-.48 21.013-10.452 20.533-22.273C42.357 9.06 32.866.031 21.436.031c-.293 0-.588.006-.884.018" mask="url(#b)"/></g><path fill="#F9FAFF" d="M38.044 21.545c0 9.18-7.442 16.622-16.622 16.622S4.799 30.725 4.799 21.545 12.241 4.922 21.422 4.922c9.18 0 16.622 7.442 16.622 16.623"/><path fill="#FFF" d="M7.989 35.393a.244.244 0 0 0 .078-.199c-.007-.075-.049-.182-.126-.322s-.123-.252-.136-.339a.331.331 0 0 1 .095-.306.332.332 0 0 1 .296-.095.57.57 0 0 1 .328.18c.07.07.118.146.145.228a.435.435 0 0 1 .015.241.432.432 0 0 1-.117.206l-.09-.09a.312.312 0 0 0 .102-.247.405.405 0 0 0-.13-.263.44.44 0 0 0-.245-.14.237.237 0 0 0-.213.068.226.226 0 0 0-.068.195c.009.076.047.175.115.295s.112.219.132.295c.02.077.024.146.01.21a.357.357 0 0 1-.101.172.336.336 0 0 1-.299.098.596.596 0 0 1-.335-.189c-.074-.074-.128-.156-.163-.244s-.044-.173-.028-.252a.402.402 0 0 1 .117-.211l.088.09a.296.296 0 0 0-.094.257.502.502 0 0 0 .155.286c.081.082.165.13.25.144a.238.238 0 0 0 .219-.068m1.349.602c.118-.135.18-.267.186-.396a.403.403 0 0 0-.15-.334.403.403 0 0 0-.348-.104c-.129.023-.254.102-.374.24l-.102.116a.66.66 0 0 0-.185.395.404.404 0 0 0 .148.336.398.398 0 0 0 .35.105c.128-.024.251-.104.37-.24l.105-.118zm-.012.203a.854.854 0 0 1-.291.224.54.54 0 0 1-.31.046.552.552 0 0 1-.284-.138.53.53 0 0 1-.193-.417c.002-.164.072-.325.212-.484l.1-.115a.87.87 0 0 1 .292-.222.546.546 0 0 1 .312-.047.548.548 0 0 1 .283.137.542.542 0 0 1 .171.571.846.846 0 0 1-.175.312l-.117.133zm.981 1.003a.53.53 0 0 1-.35.185.55.55 0 0 1-.378-.129.52.52 0 0 1-.199-.548.832.832 0 0 1 .153-.318l.116-.154a.847.847 0 0 1 .267-.238.529.529 0 0 1 .591.046.536.536 0 0 1 .223.33.533.533 0 0 1-.087.38l-.1-.075c.126-.22.093-.404-.1-.55a.389.389 0 0 0-.348-.074c-.125.032-.24.119-.348.26l-.11.146c-.103.137-.154.27-.154.398s.054.232.16.312c.104.08.202.114.293.104a.455.455 0 0 0 .27-.151l.1.076zm.513.896.538-.848-.155-.097.054-.085.154.098.072-.113c.06-.095.131-.153.212-.173a.318.318 0 0 1 .252.052.49.49 0 0 1 .1.084l-.062.08a.522.522 0 0 0-.087-.07.198.198 0 0 0-.167-.03.256.256 0 0 0-.143.12l-.073.116.222.14-.055.086-.222-.14-.538.847-.103-.066zm.862-.091a.496.496 0 0 0-.07.333.328.328 0 0 0 .17.243.33.33 0 0 0 .296.022.512.512 0 0 0 .255-.241l.011-.02a.558.558 0 0 0 .074-.225.382.382 0 0 0-.034-.207.34.34 0 0 0-.14-.146.33.33 0 0 0-.295-.02.517.517 0 0 0-.255.241l-.011.02zm-.09-.09a.662.662 0 0 1 .196-.219.463.463 0 0 1 .507-.022.451.451 0 0 1 .234.31.592.592 0 0 1-.083.424l-.012.022a.647.647 0 0 1-.196.22.46.46 0 0 1-.506.021.457.457 0 0 1-.234-.31.594.594 0 0 1 .083-.425l.012-.021zm1.748.449a.485.485 0 0 0-.07-.043.304.304 0 0 0-.202-.03.349.349 0 0 0-.184.115l-.34.677-.11-.054.497-.987.106.054-.077.158a.325.325 0 0 1 .366-.036c.03.015.053.031.067.048l-.053.098zm1.197 1.208a.237.237 0 0 0-.007-.213.897.897 0 0 0-.242-.246 1.132 1.132 0 0 1-.259-.258.335.335 0 0 1-.033-.32.334.334 0 0 1 .235-.204.579.579 0 0 1 .372.037.605.605 0 0 1 .224.152.414.414 0 0 1 .081.451l-.117-.048a.31.31 0 0 0-.004-.266.4.4 0 0 0-.224-.191.443.443 0 0 0-.28-.032.238.238 0 0 0-.169.146.228.228 0 0 0 .015.206.837.837 0 0 0 .222.226c.11.084.189.157.238.22a.418.418 0 0 1 .09.188.345.345 0 0 1-.024.198.334.334 0 0 1-.236.208.605.605 0 0 1-.383-.04.73.73 0 0 1-.245-.161.44.44 0 0 1-.125-.221.399.399 0 0 1 .024-.24l.116.047a.297.297 0 0 0 .015.274c.05.086.135.153.255.202a.467.467 0 0 0 .287.034.237.237 0 0 0 .174-.149m.975-.351a.305.305 0 0 0-.252.022.472.472 0 0 0-.195.22l.628.212.004-.013a.403.403 0 0 0-.004-.275.284.284 0 0 0-.18-.166m-.31.994a.477.477 0 0 1-.326-.387.605.605 0 0 1 .028-.283l.014-.042a.661.661 0 0 1 .15-.252.49.49 0 0 1 .227-.135.426.426 0 0 1 .25.007c.126.042.213.12.258.231a.56.56 0 0 1-.007.393l-.022.065-.747-.25-.008.022a.457.457 0 0 0 .003.33c.041.102.114.17.217.205.062.02.12.028.175.021a.388.388 0 0 0 .166-.065l.054.08a.448.448 0 0 1-.433.06m1.432-.634a.451.451 0 0 0-.078-.03.293.293 0 0 0-.203.01.344.344 0 0 0-.16.147l-.206.729-.117-.033.301-1.062.115.032-.046.17a.325.325 0 0 1 .353-.104c.033.01.057.02.074.035l-.033.106zm.349.941.539-.836.122.029-.652.982-.096-.023-.153-1.169.122.028zm.905-1.089a.081.081 0 0 1 .033-.053.08.08 0 0 1 .065-.012.084.084 0 0 1 .056.035.08.08 0 0 1 .011.062.077.077 0 0 1-.033.052.084.084 0 0 1-.065.012.084.084 0 0 1-.056-.035.078.078 0 0 1-.01-.06zm-.126 1.425-.12-.023.207-1.085.12.023-.207 1.085zm.78.047c.084.012.158-.001.222-.04s.104-.096.12-.17l.116.017a.357.357 0 0 1-.09.173.406.406 0 0 1-.172.106.484.484 0 0 1-.211.016.428.428 0 0 1-.319-.2.617.617 0 0 1-.066-.42l.006-.037a.686.686 0 0 1 .099-.277c.05-.077.113-.133.19-.168s.163-.045.257-.03c.12.017.214.067.28.15a.39.39 0 0 1 .083.3l-.116-.017a.296.296 0 0 0-.061-.22.307.307 0 0 0-.201-.111.305.305 0 0 0-.272.08.554.554 0 0 0-.14.318l-.004.035a.532.532 0 0 0 .041.34.31.31 0 0 0 .238.155m1.2-.802a.302.302 0 0 0-.24.08.457.457 0 0 0-.14.26l.66.06.001-.014a.398.398 0 0 0-.067-.266.277.277 0 0 0-.214-.12m-.072 1.038a.474.474 0 0 1-.406-.3.613.613 0 0 1-.038-.283l.004-.044a.668.668 0 0 1 .087-.28.507.507 0 0 1 .19-.184.41.41 0 0 1 .244-.05.392.392 0 0 1 .305.165c.07.098.098.226.084.384l-.006.068-.785-.071-.002.023a.462.462 0 0 0 .079.321c.064.09.15.14.259.15a.429.429 0 0 0 .175-.02c.052-.02.1-.054.146-.102l.071.065a.447.447 0 0 1-.407.158m2.242-.774c-.002-.179-.045-.318-.127-.418a.403.403 0 0 0-.336-.147.4.4 0 0 0-.327.158c-.08.103-.12.246-.116.428l.002.155a.655.655 0 0 0 .13.417.401.401 0 0 0 .335.149.398.398 0 0 0 .33-.158c.078-.103.115-.245.112-.427l-.002-.157zm.129.16a.867.867 0 0 1-.065.36.546.546 0 0 1-.199.243.558.558 0 0 1-.303.088.526.526 0 0 1-.423-.18c-.109-.122-.165-.288-.168-.5l-.003-.152a.854.854 0 0 1 .066-.36.55.55 0 0 1 .2-.245.556.556 0 0 1 .302-.09.537.537 0 0 1 .51.309c.05.1.076.216.08.349l.003.177zm.785-.379a.451.451 0 0 0-.083-.002.298.298 0 0 0-.189.075.353.353 0 0 0-.102.191l.043.757-.12.007-.064-1.102.12-.007.011.175a.324.324 0 0 1 .3-.213c.034-.002.06 0 .081.008l.003.111zm.293.438c.015.14.055.247.12.322a.272.272 0 0 0 .25.096.325.325 0 0 0 .296-.235l-.054-.51a.359.359 0 0 0-.14-.148.335.335 0 0 0-.199-.035.28.28 0 0 0-.226.146c-.048.086-.064.207-.047.364zm-.125-.009a.668.668 0 0 1 .07-.42.372.372 0 0 1 .295-.184c.15-.016.27.032.36.143l-.011-.16.113-.011.115 1.075a.47.47 0 0 1-.083.349.434.434 0 0 1-.309.158.504.504 0 0 1-.224-.028.426.426 0 0 1-.178-.12l.06-.08a.384.384 0 0 0 .323.126.309.309 0 0 0 .228-.115.363.363 0 0 0 .062-.258l-.015-.138a.396.396 0 0 1-.323.198.364.364 0 0 1-.322-.12.67.67 0 0 1-.16-.398l-.001-.017zm1.613.275a.405.405 0 0 0 .206-.095.348.348 0 0 0 .112-.179l-.04-.24-.216.037a.555.555 0 0 0-.27.113.2.2 0 0 0-.072.193c.01.061.041.108.093.14a.259.259 0 0 0 .187.031zm.393.023a.574.574 0 0 1-.049-.148.433.433 0 0 1-.14.155.523.523 0 0 1-.2.08.37.37 0 0 1-.269-.046.282.282 0 0 1-.134-.205.293.293 0 0 1 .09-.273c.077-.077.195-.128.353-.155l.218-.037-.02-.123a.244.244 0 0 0-.104-.172c-.055-.037-.129-.047-.22-.032a.333.333 0 0 0-.198.1c-.048.052-.067.108-.056.169l-.121.019c-.015-.087.013-.168.082-.245a.47.47 0 0 1 .281-.145.432.432 0 0 1 .303.042c.08.05.13.128.15.236l.088.515a.625.625 0 0 0 .073.231l.001.012-.128.022zm.335-1.192.047.183a.411.411 0 0 1 .303-.285c.116-.027.209-.014.28.038.072.051.123.142.154.272l.163.706-.118.027-.164-.707c-.023-.096-.06-.162-.11-.2-.052-.038-.121-.047-.21-.026a.31.31 0 0 0-.179.114.417.417 0 0 0-.082.216l.17.736-.118.028-.25-1.076.114-.026zm1.421.783-.118.032-.296-1.064.118-.032.296 1.063zm-.52-1.333a.083.083 0 0 1 .006-.062.08.08 0 0 1 .053-.04.083.083 0 0 1 .066.007.08.08 0 0 1 .037.05.083.083 0 0 1-.006.062.083.083 0 0 1-.054.039.08.08 0 0 1-.065-.006.087.087 0 0 1-.037-.05zm.919 1.109.683-.219.032.098-.827.266-.027-.086.359-1.069-.618.198-.032-.101.764-.245.028.087zm1.231-.408a.41.41 0 0 0 .183-.134.35.35 0 0 0 .074-.198l-.088-.226-.204.078a.549.549 0 0 0-.242.166.197.197 0 0 0-.032.203.197.197 0 0 0 .12.119.26.26 0 0 0 .189-.008zm.39-.056a.587.587 0 0 1-.078-.135.436.436 0 0 1-.106.18.536.536 0 0 1-.18.118.376.376 0 0 1-.273.01.294.294 0 0 1-.173-.174.299.299 0 0 1 .034-.287c.06-.09.166-.164.315-.222l.207-.08-.046-.117a.239.239 0 0 0-.135-.147c-.062-.025-.136-.02-.223.013a.323.323 0 0 0-.173.137.193.193 0 0 0-.022.177l-.114.043c-.032-.082-.021-.168.032-.257a.469.469 0 0 1 .246-.198.437.437 0 0 1 .305-.02c.088.033.153.1.195.202l.188.487c.039.1.078.17.118.212l.004.011-.122.047zm.042-1.526.114.259.21-.093.04.092-.21.092.299.674c.025.056.053.093.085.111.033.019.073.018.12-.003a.842.842 0 0 0 .086-.05l.045.089a.41.41 0 0 1-.112.068c-.077.034-.143.037-.197.008-.055-.03-.1-.087-.14-.174l-.297-.673-.186.082-.04-.092.185-.082-.114-.258.112-.05zm1.15.995-.11.053-.478-.995.11-.053.478.995zm-.745-1.22a.081.081 0 0 1-.005-.063.078.078 0 0 1 .044-.047.084.084 0 0 1 .067-.006.08.08 0 0 1 .045.043c.01.02.012.041.005.062a.086.086 0 0 1-.046.048c-.023.01-.045.013-.065.005a.074.074 0 0 1-.045-.042zm.876.562a.505.505 0 0 0 .244.238c.1.043.2.038.297-.015a.326.326 0 0 0 .176-.238.521.521 0 0 0-.067-.344l-.011-.02a.568.568 0 0 0-.15-.183.383.383 0 0 0-.194-.081.34.34 0 0 0-.198.04.326.326 0 0 0-.174.239.52.52 0 0 0 .067.344l.01.02zm-.123.028a.657.657 0 0 1-.081-.282.468.468 0 0 1 .252-.44c.13-.07.259-.08.388-.032a.594.594 0 0 1 .314.296l.012.023c.05.094.077.188.081.283a.46.46 0 0 1-.253.438.45.45 0 0 1-.387.032.592.592 0 0 1-.315-.296l-.011-.022zm.923-1.121.103.159a.404.404 0 0 1 .196-.367c.1-.063.193-.08.278-.054.084.026.161.096.232.209l.38.616-.103.064-.381-.617c-.052-.084-.109-.135-.17-.155-.06-.02-.128-.005-.205.042a.31.31 0 0 0-.134.166.424.424 0 0 0-.009.23l.397.644-.103.064-.58-.94.099-.06zm1.881-.253a.174.174 0 0 0-.144-.078.58.58 0 0 0-.23.056.936.936 0 0 1-.227.073.3.3 0 0 1-.155-.012.236.236 0 0 1-.113-.092.264.264 0 0 1-.035-.24.44.44 0 0 1 .18-.23c.1-.07.2-.103.295-.096a.29.29 0 0 1 .228.131l-.1.07a.202.202 0 0 0-.159-.085.32.32 0 0 0-.204.065.323.323 0 0 0-.128.155.168.168 0 0 0 .02.156.153.153 0 0 0 .124.07.638.638 0 0 0 .229-.06c.102-.04.183-.064.243-.072a.317.317 0 0 1 .157.016c.044.018.083.05.115.097.054.077.066.16.036.248a.48.48 0 0 1-.192.238.496.496 0 0 1-.31.103.286.286 0 0 1-.234-.124l.1-.07a.215.215 0 0 0 .17.084c.069 0 .14-.025.214-.078a.338.338 0 0 0 .137-.164.169.169 0 0 0-.017-.161m1.615-.57-.079.067-1.143-1.339.078-.067zm1.142-2.006a.182.182 0 0 0-.156-.055.865.865 0 0 0-.25.106 1.206 1.206 0 0 1-.284.122c-.156.04-.283.011-.381-.083a.362.362 0 0 1-.112-.31.59.59 0 0 1 .179-.356.647.647 0 0 1 .232-.16.46.46 0 0 1 .25-.025.424.424 0 0 1 .217.112l-.178.186a.23.23 0 0 0-.182-.073c-.065.004-.13.04-.192.105a.317.317 0 0 0-.097.179.183.183 0 0 0 .06.155c.04.037.09.05.151.04a.9.9 0 0 0 .25-.107c.104-.06.197-.1.277-.12a.443.443 0 0 1 .216-.006c.063.016.122.05.177.103a.35.35 0 0 1 .115.307.619.619 0 0 1-.188.354.734.734 0 0 1-.248.173.5.5 0 0 1-.265.038.416.416 0 0 1-.229-.116l.18-.186a.24.24 0 0 0 .199.075.365.365 0 0 0 .216-.125c.062-.065.095-.126.1-.184a.177.177 0 0 0-.057-.149m.215-1.064a.207.207 0 0 0-.052.172.364.364 0 0 0 .1.19l.305-.36-.014-.013a.294.294 0 0 0-.187-.07.208.208 0 0 0-.153.081m.742.588a.509.509 0 0 1-.36.196.54.54 0 0 1-.397-.143l-.023-.02a.64.64 0 0 1-.184-.239.483.483 0 0 1 .07-.511.437.437 0 0 1 .336-.173c.126 0 .256.055.39.169l.076.064-.465.551a.33.33 0 0 0 .224.07.27.27 0 0 0 .191-.102.338.338 0 0 0 .074-.301l.184-.02a.452.452 0 0 1 .003.234.559.559 0 0 1-.119.225m.068-1.533a.606.606 0 0 0-.068.075c-.07.09-.081.178-.036.262l.6.458-.15.198-.878-.67.144-.189.102.07a.278.278 0 0 1 .037-.285.22.22 0 0 1 .064-.06l.185.141zm.789-.142-.518-.641.146-.211.691.942-.122.178-1.128-.31.146-.212zm.779-.615-.132.21-.935-.589.133-.21.934.589zm-1.317-.519a.127.127 0 0 1-.061-.08c-.009-.035-.001-.07.023-.109a.141.141 0 0 1 .087-.068c.035-.007.068 0 .1.02s.052.047.06.08c.008.035 0 .07-.024.109a.141.141 0 0 1-.087.068.128.128 0 0 1-.098-.02zm1.554-.227a.228.228 0 0 0 .029-.16.185.185 0 0 0-.084-.124l.116-.203a.36.36 0 0 1 .135.151.42.42 0 0 1 .042.212.487.487 0 0 1-.065.22.47.47 0 0 1-.312.244c-.132.029-.274 0-.427-.088l-.022-.012a.59.59 0 0 1-.284-.317.463.463 0 0 1 .05-.394.456.456 0 0 1 .259-.222.41.41 0 0 1 .326.036l-.115.203a.228.228 0 0 0-.168-.021.21.21 0 0 0-.13.104.218.218 0 0 0-.016.205c.029.066.094.13.197.188l.034.02c.104.06.193.085.265.077a.218.218 0 0 0 .17-.12m-.136-1.34a.215.215 0 0 0-.01.18.383.383 0 0 0 .144.16l.21-.424-.017-.008a.3.3 0 0 0-.198-.024.21.21 0 0 0-.13.116m.862.393a.513.513 0 0 1-.303.277.536.536 0 0 1-.419-.044l-.027-.014a.651.651 0 0 1-.237-.188.48.48 0 0 1-.052-.513.432.432 0 0 1 .282-.248c.123-.031.262-.008.42.07l.09.044-.32.647a.33.33 0 0 0 .234.014.271.271 0 0 0 .16-.145.333.333 0 0 0 0-.31l.174-.063c.04.068.06.144.059.226 0 .083-.02.165-.061.247m.109-2.306c-.154-.058-.283-.074-.387-.047a.308.308 0 0 0-.217.201.301.301 0 0 0 .03.291.64.64 0 0 0 .313.222l.08.03a.644.644 0 0 0 .388.046.309.309 0 0 0 .218-.2.304.304 0 0 0-.028-.293c-.06-.089-.168-.163-.324-.222l-.073-.028zm.164-.214a.914.914 0 0 1 .332.207.57.57 0 0 1 .128.625.577.577 0 0 1-.509.384.871.871 0 0 1-.38-.06l-.078-.03a.893.893 0 0 1-.332-.208.573.573 0 0 1-.13-.626.567.567 0 0 1 .508-.383c.12-.01.248.011.384.062l.077.03zm.078-.841a.672.672 0 0 0-.038.095c-.034.108-.015.194.056.258l.72.226-.073.236-1.054-.33.07-.226.12.031a.28.28 0 0 1-.062-.28.23.23 0 0 1 .04-.08l.221.07zm.421-.246a.44.44 0 0 0 .27 0 .22.22 0 0 0 .14-.159.238.238 0 0 0-.069-.247l-.47-.122a.236.236 0 0 0-.177.182.221.221 0 0 0 .046.209c.052.06.138.105.26.137m-.082.234a.648.648 0 0 1-.368-.22.387.387 0 0 1-.068-.35.364.364 0 0 1 .202-.254l-.105-.039.056-.216 1.036.268c.14.036.24.109.298.217a.508.508 0 0 1 .03.384.575.575 0 0 1-.108.217.421.421 0 0 1-.172.138l-.115-.151a.352.352 0 0 0 .202-.239.276.276 0 0 0-.016-.205c-.031-.058-.089-.097-.172-.119l-.072-.018c.059.089.074.19.044.306a.388.388 0 0 1-.229.268c-.12.054-.268.058-.443.013m.752-1.523a.278.278 0 0 0-.009-.143.233.233 0 0 0-.076-.114l-.204-.04-.025.132a.356.356 0 0 0 .008.212.152.152 0 0 0 .12.094.14.14 0 0 0 .12-.025.18.18 0 0 0 .066-.116zm.227-.234a.369.369 0 0 1-.107.009.386.386 0 0 1 .067.307.39.39 0 0 1-.145.249.305.305 0 0 1-.25.059.315.315 0 0 1-.241-.18c-.046-.098-.053-.227-.022-.387l.029-.149-.071-.013a.197.197 0 0 0-.144.02c-.04.025-.066.07-.078.134a.216.216 0 0 0 .015.144.13.13 0 0 0 .095.074l-.047.243a.271.271 0 0 1-.155-.091.398.398 0 0 1-.09-.184.568.568 0 0 1-.001-.236.466.466 0 0 1 .154-.285.347.347 0 0 1 .292-.064l.489.094c.097.02.178.02.241.004l.017.004-.048.248zm-.974-.889.127.01a.401.401 0 0 1-.105-.339c.03-.228.176-.327.437-.297l.724.094-.032.246-.71-.092c-.07-.01-.122 0-.16.025-.037.026-.06.072-.069.14-.013.1.022.18.106.24l.779.101-.032.246-1.095-.143.03-.231zm1.229-1.088-.02.247-1.1-.093.02-.247 1.1.093zm-1.408.145a.13.13 0 0 1-.091-.044c-.023-.026-.033-.062-.03-.107.005-.044.02-.078.047-.1a.134.134 0 0 1 .098-.029.127.127 0 0 1 .09.045c.023.026.032.062.028.107-.004.044-.019.078-.046.1a.127.127 0 0 1-.096.028zm1.247-.726.025-.587.198.008-.038.895-.162-.006-.718-.592-.023.55-.2-.009.037-.863.157.006zm.042-1.215a.292.292 0 0 0-.038-.138.25.25 0 0 0-.098-.096l-.208.004.002.134c.002.091.019.16.052.206a.153.153 0 0 0 .136.067.139.139 0 0 0 .113-.05.174.174 0 0 0 .04-.127zm.174-.275a.394.394 0 0 1-.103.03.385.385 0 0 1 .128.288.39.39 0 0 1-.09.273.31.31 0 0 1-.233.109.314.314 0 0 1-.273-.127c-.064-.087-.098-.211-.1-.374l-.003-.152-.072.002a.19.19 0 0 0-.137.05c-.034.032-.05.081-.049.146 0 .057.016.103.045.139a.13.13 0 0 0 .108.052l.004.248a.275.275 0 0 1-.17-.058.396.396 0 0 1-.127-.161.591.591 0 0 1-.05-.23.473.473 0 0 1 .093-.311.346.346 0 0 1 .272-.123l.498-.008a.563.563 0 0 0 .237-.046h.018l.004.253zm-1.408-.736.267-.017-.012-.194.183-.012.013.195.615-.039c.042-.003.072-.013.09-.03.017-.018.024-.049.022-.091a.362.362 0 0 0-.016-.086l.192-.012a.6.6 0 0 1 .033.161c.012.19-.087.292-.297.305l-.624.039.011.181-.183.012-.011-.181-.268.016-.016-.247zm1.312-.762.024.247-1.1.104-.023-.246 1.1-.105zm-1.36.394a.127.127 0 0 1-.097-.027c-.028-.022-.043-.055-.048-.1a.14.14 0 0 1 .028-.107.127.127 0 0 1 .091-.045.124.124 0 0 1 .096.027c.028.022.043.056.047.1.005.045-.004.08-.027.107a.13.13 0 0 1-.09.045zm.768-.829a.442.442 0 0 0 .254-.107.227.227 0 0 0 .068-.207.226.226 0 0 0-.125-.18.487.487 0 0 0-.293-.029.442.442 0 0 0-.253.109.23.23 0 0 0-.07.207c.012.08.053.14.123.177.07.038.169.048.295.03zm.013.249a.642.642 0 0 1-.298-.023.47.47 0 0 1-.331-.405.487.487 0 0 1 .092-.38.567.567 0 0 1 .357-.202l.057-.01a.653.653 0 0 1 .298.022.473.473 0 0 1 .33.407.477.477 0 0 1-.102.392.597.597 0 0 1-.39.197l-.013.002zm-.763-1.361.124-.032a.393.393 0 0 1-.21-.285c-.047-.225.058-.367.315-.424l.715-.148.05.243-.7.145c-.07.014-.117.04-.144.076-.027.037-.033.088-.02.156a.24.24 0 0 0 .18.191l.768-.16.05.244-1.08.223-.048-.229zm.42-1.708a.11.11 0 0 0-.084.079.57.57 0 0 0-.012.19.906.906 0 0 1-.01.222c-.025.135-.093.218-.202.247a.295.295 0 0 1-.262-.053.48.48 0 0 1-.173-.27.505.505 0 0 1 .011-.335.31.31 0 0 1 .214-.184l.064.24a.144.144 0 0 0-.1.081.203.203 0 0 0-.01.149.219.219 0 0 0 .072.118c.033.027.07.035.11.024a.1.1 0 0 0 .074-.07.628.628 0 0 0 .01-.204.89.89 0 0 1 .015-.24.33.33 0 0 1 .07-.148.277.277 0 0 1 .136-.078.288.288 0 0 1 .265.056c.08.063.139.16.173.288.024.088.03.17.016.246a.397.397 0 0 1-.087.195.31.31 0 0 1-.162.105l-.063-.232a.175.175 0 0 0 .113-.1.251.251 0 0 0 .003-.168.254.254 0 0 0-.074-.134.114.114 0 0 0-.108-.024"/><path fill="#636670" d="M11.123 16.577h2.67l-1.335-3.628-1.335 3.628zm2.849.475h-3.023l-.686 1.87h-.59l2.52-6.657h.535l2.52 6.657h-.586l-.69-1.87zm2.284 1.87h.562v-6.658h-.562zm6.989-2.075c-.077.7-.327 1.237-.752 1.609-.426.372-.992.557-1.7.557a2.35 2.35 0 0 1-1.31-.37 2.423 2.423 0 0 1-.88-1.05c-.207-.452-.312-.97-.315-1.552v-.864c0-.591.104-1.116.311-1.573.207-.457.505-.81.894-1.058a2.434 2.434 0 0 1 1.342-.373c.713 0 1.276.192 1.69.576.413.384.653.916.72 1.596h-.567c-.14-1.13-.755-1.696-1.843-1.696-.604 0-1.084.225-1.443.677-.358.451-.537 1.075-.537 1.871v.815c0 .769.175 1.382.524 1.84.349.457.82.686 1.415.686.588 0 1.032-.141 1.33-.423.299-.282.483-.705.554-1.269h.567zm1.836-1.112h1.705c.546 0 .962-.13 1.248-.39.287-.259.43-.62.43-1.085 0-.46-.142-.828-.427-1.1-.285-.274-.69-.414-1.214-.42h-1.742v2.995zm0 .476v2.711h-.563v-6.657h2.268c.692 0 1.239.176 1.64.53.4.354.6.84.6 1.459 0 .624-.192 1.107-.578 1.447-.386.34-.944.51-1.676.51h-1.69zm5.224.366h2.67L31.64 12.95l-1.335 3.626zm2.848.475h-3.021l-.686 1.87h-.59l2.52-6.657h.535l2.52 6.657h-.586l-.69-1.87zM17.772 28.097c0-.368-.13-.66-.39-.875-.259-.215-.732-.42-1.421-.613-.69-.193-1.192-.404-1.51-.633-.45-.323-.676-.747-.676-1.271 0-.51.21-.923.629-1.242.419-.318.955-.477 1.607-.477.442 0 .838.085 1.187.256.349.17.62.408.811.713.192.305.288.645.288 1.02h-.567c0-.456-.155-.822-.466-1.099-.311-.276-.729-.415-1.253-.415-.51 0-.915.114-1.216.341a1.066 1.066 0 0 0-.453.891c0 .339.136.615.407.829.271.214.706.402 1.303.566.598.163 1.05.332 1.358.508.308.175.54.384.695.628.156.244.233.532.233.864 0 .525-.21.945-.628 1.262-.42.318-.972.476-1.658.476-.47 0-.9-.084-1.291-.252-.392-.167-.69-.402-.892-.704a1.812 1.812 0 0 1-.304-1.038h.562c0 .47.175.84.526 1.111.35.272.817.407 1.4.407.517 0 .933-.114 1.247-.342.314-.23.471-.532.471-.91m6.043-2.053c0-.802-.181-1.43-.544-1.884-.363-.455-.86-.682-1.49-.682-.62 0-1.113.228-1.48.684-.367.456-.55 1.092-.55 1.909v.695c0 .79.182 1.415.548 1.877.366.462.862.693 1.49.693.637 0 1.134-.228 1.491-.684.357-.456.535-1.09.535-1.904v-.704zm.562.722c0 .613-.106 1.15-.317 1.614a2.43 2.43 0 0 1-.908 1.07c-.393.25-.847.375-1.363.375-.777 0-1.405-.278-1.883-.835-.479-.556-.718-1.306-.718-2.251v-.686c0-.607.107-1.144.322-1.612.215-.468.52-.828.912-1.08.393-.25.846-.377 1.358-.377.512 0 .964.124 1.356.371.392.247.694.596.908 1.047.213.451.324.974.333 1.568v.796zm6.038.892c-.076.7-.327 1.237-.752 1.61-.425.371-.991.557-1.699.557-.493 0-.93-.124-1.31-.37a2.417 2.417 0 0 1-.88-1.05c-.207-.452-.312-.97-.315-1.552v-.864c0-.592.103-1.116.31-1.573.208-.457.506-.81.895-1.059a2.439 2.439 0 0 1 1.342-.372c.713 0 1.276.192 1.69.576.412.384.652.916.72 1.596h-.568c-.14-1.131-.754-1.697-1.842-1.697-.604 0-1.085.226-1.443.677-.358.452-.537 1.076-.537 1.872v.814c0 .77.174 1.382.523 1.84.35.458.821.686 1.415.686.589 0 1.032-.14 1.33-.423.3-.281.484-.704.554-1.268h.567z"/><path stroke="#636670" stroke-linecap="round" stroke-linejoin="round" stroke-width=".5" d="M9.195 21.086h25.376"/><path fill="#636670" d="M13.14 33.076a.384.384 0 0 0 .33-.192v-.264h-.172c-.27 0-.404.079-.404.236 0 .07.023.123.07.162a.265.265 0 0 0 .176.058zm.364.167a.423.423 0 0 1-.03-.135.492.492 0 0 1-.366.159.45.45 0 0 1-.311-.108.343.343 0 0 1-.122-.272.36.36 0 0 1 .152-.311c.102-.074.245-.111.43-.111h.213v-.101a.241.241 0 0 0-.07-.183c-.045-.046-.113-.069-.202-.069a.318.318 0 0 0-.197.06c-.053.04-.08.087-.08.143h-.22c0-.064.023-.126.068-.185a.468.468 0 0 1 .185-.142.621.621 0 0 1 .257-.052c.148 0 .264.037.348.11a.401.401 0 0 1 .13.306v.59c0 .119.015.212.045.282v.019h-.23zm.488 0h.219v-1.284h-.22v1.284zm-.018-1.624c0-.036.01-.066.032-.09.022-.025.054-.037.097-.037.043 0 .075.012.097.037a.128.128 0 0 1 .033.09c0 .035-.01.065-.033.089-.022.024-.054.035-.097.035-.043 0-.075-.011-.097-.035a.132.132 0 0 1-.032-.09zm1.042 1.468a.32.32 0 0 0 .206-.07.256.256 0 0 0 .097-.179h.208a.403.403 0 0 1-.077.21.493.493 0 0 1-.186.16.546.546 0 0 1-.248.059.53.53 0 0 1-.417-.175c-.103-.117-.155-.276-.155-.479v-.037c0-.125.023-.236.07-.333a.52.52 0 0 1 .501-.307c.144 0 .264.043.359.129a.466.466 0 0 1 .153.336h-.208a.304.304 0 0 0-.095-.205.293.293 0 0 0-.209-.08.31.31 0 0 0-.26.12c-.06.08-.091.197-.091.349v.041c0 .148.03.262.091.342.061.08.148.12.261.12m1.561-.497c0-.145-.03-.26-.092-.343a.298.298 0 0 0-.254-.126.322.322 0 0 0-.299.177v.613a.324.324 0 0 0 .301.176c.106 0 .19-.042.251-.126.062-.083.093-.207.093-.371zm.22.024a.773.773 0 0 1-.134.473.43.43 0 0 1-.363.179.47.47 0 0 1-.368-.149v.619h-.22v-1.778h.2l.012.143a.45.45 0 0 1 .372-.166c.154 0 .276.058.366.174.09.116.135.278.135.485v.02zm.646.461a.384.384 0 0 0 .33-.192v-.264h-.172c-.269 0-.403.079-.403.236 0 .07.022.123.068.162a.27.27 0 0 0 .177.058zm.364.167a.453.453 0 0 1-.03-.135.492.492 0 0 1-.366.159.451.451 0 0 1-.311-.108.346.346 0 0 1-.122-.272c0-.134.05-.237.153-.311.101-.074.244-.111.428-.111h.214v-.101a.244.244 0 0 0-.069-.183c-.046-.046-.113-.069-.203-.069a.318.318 0 0 0-.197.06c-.053.04-.08.087-.08.143h-.22c0-.064.023-.126.068-.185a.475.475 0 0 1 .185-.142.621.621 0 0 1 .257-.052c.148 0 .264.037.348.11a.401.401 0 0 1 .13.306v.59c0 .119.015.212.046.282v.019h-.23zm.474-.116c0-.037.01-.069.033-.094.023-.025.057-.038.102-.038.045 0 .08.013.102.038a.131.131 0 0 1 .035.095.124.124 0 0 1-.035.091c-.023.025-.057.037-.102.037-.045 0-.08-.012-.102-.037a.13.13 0 0 1-.033-.091m.736-.513c0 .143.033.257.1.343.065.087.154.13.264.13.112 0 .2-.044.266-.131.066-.088.098-.21.098-.368a.547.547 0 0 0-.1-.342.319.319 0 0 0-.266-.131.313.313 0 0 0-.262.13c-.067.085-.1.209-.1.37zm-.22-.026a.75.75 0 0 1 .074-.339.557.557 0 0 1 .206-.233.566.566 0 0 1 .302-.081.54.54 0 0 1 .424.181.698.698 0 0 1 .162.483v.015a.768.768 0 0 1-.072.337.545.545 0 0 1-.512.315.537.537 0 0 1-.423-.182.692.692 0 0 1-.162-.48v-.016zm2.003-.432a.613.613 0 0 0-.108-.009c-.144 0-.242.061-.293.184v.911h-.22v-1.284h.214l.004.149a.341.341 0 0 1 .306-.172c.042 0 .075.005.097.016v.204zm.287.458c0 .145.03.259.089.342.06.082.142.124.249.124a.32.32 0 0 0 .305-.19v-.585a.324.324 0 0 0-.302-.184.293.293 0 0 0-.251.124c-.06.083-.09.207-.09.37m-.22-.025c0-.2.046-.36.138-.478a.445.445 0 0 1 .368-.177c.157 0 .279.055.366.166l.011-.143h.2v1.253a.525.525 0 0 1-.147.393.542.542 0 0 1-.397.143.674.674 0 0 1-.272-.059.473.473 0 0 1-.202-.162l.113-.132c.095.116.21.174.346.174.106 0 .19-.03.25-.09s.09-.145.09-.254v-.11a.456.456 0 0 1-.36.152.437.437 0 0 1-.365-.182c-.093-.12-.14-.286-.14-.494m1.399.8h-.189l.721-1.875h.188zm1.644-.488a.164.164 0 0 0-.067-.139.693.693 0 0 0-.234-.085c-.11-.023-.2-.052-.264-.085a.368.368 0 0 1-.145-.119.275.275 0 0 1-.047-.163c0-.105.044-.194.133-.267a.524.524 0 0 1 .342-.11c.145 0 .263.038.354.113.09.075.136.172.136.289h-.221a.2.2 0 0 0-.077-.156.286.286 0 0 0-.192-.065.3.3 0 0 0-.188.052.164.164 0 0 0-.067.137c0 .053.02.093.062.12a.82.82 0 0 0 .228.077c.11.024.198.053.266.087.068.034.118.075.151.123s.05.106.05.175a.328.328 0 0 1-.138.276.573.573 0 0 1-.357.104.637.637 0 0 1-.273-.055.44.44 0 0 1-.186-.152.367.367 0 0 1-.067-.212h.22a.223.223 0 0 0 .088.175.345.345 0 0 0 .218.065c.083 0 .15-.017.2-.05a.157.157 0 0 0 .075-.135m.607-.288c0 .143.033.257.1.343.065.087.154.13.264.13.112 0 .2-.044.266-.131.066-.088.098-.21.098-.368a.547.547 0 0 0-.1-.342.319.319 0 0 0-.266-.131.313.313 0 0 0-.262.13c-.067.085-.1.209-.1.37zm-.22-.026a.75.75 0 0 1 .074-.339.557.557 0 0 1 .206-.233.566.566 0 0 1 .302-.081.54.54 0 0 1 .424.181.698.698 0 0 1 .162.483v.015a.768.768 0 0 1-.072.337.545.545 0 0 1-.512.315.537.537 0 0 1-.423-.182.692.692 0 0 1-.162-.48v-.016zm1.897.498a.32.32 0 0 0 .206-.07.256.256 0 0 0 .097-.179h.208a.402.402 0 0 1-.076.21.512.512 0 0 1-.187.16.546.546 0 0 1-.248.059.533.533 0 0 1-.417-.175c-.103-.117-.154-.276-.154-.479v-.037c0-.125.023-.236.068-.333a.529.529 0 0 1 .198-.227.567.567 0 0 1 .304-.08.52.52 0 0 1 .36.129.465.465 0 0 1 .152.336h-.208a.297.297 0 0 0-.304-.285.307.307 0 0 0-.259.12c-.061.08-.092.197-.092.349v.041c0 .148.03.262.091.342.061.08.148.12.261.12m.842-.425h.538v-.847l-.026.047-.512.8zm.759 0h.24v.179h-.24v.401h-.221v-.401h-.787v-.13l.774-1.196h.234v1.147zm1.147.24a.164.164 0 0 0-.067-.139.693.693 0 0 0-.234-.085 1.087 1.087 0 0 1-.265-.085.383.383 0 0 1-.145-.119.29.29 0 0 1-.046-.163c0-.105.044-.194.133-.267a.523.523 0 0 1 .341-.11c.146 0 .264.038.354.113.09.075.136.172.136.289h-.22a.2.2 0 0 0-.077-.156.287.287 0 0 0-.193-.065.297.297 0 0 0-.187.052.165.165 0 0 0-.068.137c0 .053.021.093.063.12a.824.824 0 0 0 .227.077c.11.024.199.053.267.087a.377.377 0 0 1 .15.123c.034.048.05.106.05.175a.328.328 0 0 1-.138.276.57.57 0 0 1-.357.104.635.635 0 0 1-.272-.055.433.433 0 0 1-.186-.152.367.367 0 0 1-.067-.212h.22a.223.223 0 0 0 .088.175.342.342 0 0 0 .217.065c.083 0 .15-.017.2-.05a.158.158 0 0 0 .076-.135m.607-.288c0 .143.033.257.099.343.066.087.154.13.265.13.112 0 .2-.044.266-.131.066-.088.098-.21.098-.368a.547.547 0 0 0-.1-.342.32.32 0 0 0-.266-.131.312.312 0 0 0-.262.13c-.067.085-.1.209-.1.37zm-.22-.026c0-.125.024-.239.073-.339.05-.1.119-.178.207-.233a.566.566 0 0 1 .302-.081c.174 0 .316.06.424.181a.698.698 0 0 1 .162.483v.015a.768.768 0 0 1-.072.337.545.545 0 0 1-.512.315.537.537 0 0 1-.423-.182.692.692 0 0 1-.162-.48v-.016z"/><text fill="#636670" font-family="MyriadPro-Regular, Myriad Pro" font-size="3.3">
					<tspan x="38.858" y="39.399">
						™
					</tspan>
				</text></g></svg>