<svg xmlns="http://www.w3.org/2000/svg" xmlns:xlink="http://www.w3.org/1999/xlink" width="43" height="44" viewBox="0 0 43 44">
	<defs>
		<path id="8wv44k26ka" d="M20.552.05C9.033.516.01 9.997 0 21.42v.033c0 .288.006.578.018.868.468 11.521 9.951 20.546 21.375 20.553h.028c.289 0 .578-.007.87-.018 11.82-.48 21.013-10.452 20.533-22.273C42.357 9.06 32.866.031 21.436.031c-.293 0-.588.006-.884.018" />
	</defs>
	<g fill="none" fill-rule="evenodd">
		<g>
			<g>
				<g transform="translate(-556 -7415) translate(556 7415) translate(0 .092)">
					<mask id="21iqgk8l0b" fill="#fff">
						<use xlink:href="#8wv44k26ka" />
					</mask>
					<path fill="#636670" d="M20.552.05C9.033.516.01 9.997 0 21.42v.033c0 .288.006.578.018.868.468 11.521 9.951 20.546 21.375 20.553h.028c.289 0 .578-.007.87-.018 11.82-.48 21.013-10.452 20.533-22.273C42.357 9.06 32.866.031 21.436.031c-.293 0-.588.006-.884.018" mask="url(#21iqgk8l0b)" />
				</g>
				<g>
					<path fill="#F9FAFF" d="M33.362 16.648c0 9.18-7.442 16.622-16.622 16.622S.117 25.828.117 16.648 7.559.025 16.74.025c9.18 0 16.622 7.442 16.622 16.623" transform="translate(-556 -7415) translate(556 7415) translate(4.682 4.897)" />
					<path fill="#FFF" d="M3.307 30.496c.058-.058.084-.124.078-.199-.007-.075-.049-.182-.126-.322s-.123-.252-.136-.339c-.02-.122.012-.224.095-.306.081-.08.18-.112.296-.095.116.016.226.076.328.18.07.07.118.146.145.228.028.083.033.163.015.241-.019.078-.058.147-.117.206l-.09-.09c.073-.072.107-.154.102-.247-.005-.092-.048-.18-.13-.263-.08-.081-.162-.128-.245-.14-.084-.012-.155.01-.213.068-.054.053-.076.118-.068.195.009.076.047.175.115.295s.112.219.132.295c.02.077.024.146.01.21-.015.062-.048.12-.101.172-.083.082-.183.115-.299.098-.116-.017-.228-.08-.335-.189-.074-.074-.128-.156-.163-.244s-.044-.173-.028-.252c.016-.08.055-.15.117-.211l.088.09c-.074.073-.106.159-.094.257.012.098.064.193.155.286.081.082.165.13.25.144.086.014.159-.008.219-.068M4.656 31.098c.118-.135.18-.267.186-.396.006-.13-.044-.241-.15-.334-.103-.091-.22-.126-.348-.104-.129.023-.254.102-.374.24l-.102.116c-.116.132-.178.264-.185.395-.006.132.043.244.148.336.107.094.224.129.35.105.128-.024.251-.104.37-.24l.105-.118zm-.012.203c-.09.103-.188.178-.291.224-.104.047-.208.062-.31.046-.103-.016-.198-.062-.284-.138-.13-.114-.194-.254-.193-.417.002-.164.072-.325.212-.484l.1-.115c.09-.101.187-.175.292-.222.105-.047.209-.063.312-.047.103.016.197.061.283.137.086.075.144.163.173.262.03.099.028.202-.002.309-.03.107-.09.211-.175.312l-.117.133zM5.625 32.304c-.108.115-.225.176-.35.185-.127.01-.252-.034-.378-.129-.088-.066-.15-.147-.184-.242s-.04-.197-.015-.306c.024-.108.075-.214.153-.318l.116-.154c.08-.105.169-.185.267-.238.098-.054.199-.076.301-.068.103.008.2.046.29.114.126.096.201.206.223.33.022.124-.007.25-.087.38l-.1-.075c.126-.22.093-.404-.1-.55-.108-.082-.224-.106-.348-.074-.125.032-.24.119-.348.26l-.11.146c-.103.137-.154.27-.154.398s.054.232.16.312c.104.08.202.114.293.104.091-.01.181-.06.27-.151l.1.076zM6.138 33.2l.538-.848-.155-.097.054-.085.154.098.072-.113c.06-.095.131-.153.212-.173.081-.02.165-.003.252.052.039.025.072.053.1.084l-.062.08c-.024-.025-.054-.048-.087-.07-.057-.036-.113-.046-.167-.03-.054.015-.102.055-.143.12l-.073.116.222.14L7 32.56l-.222-.14-.538.847-.103-.066zM7 33.109c-.065.114-.088.225-.07.333.017.107.074.188.17.243.097.054.195.062.296.022.102-.04.187-.12.255-.241l.011-.02c.042-.074.067-.149.074-.225.007-.077-.004-.146-.034-.207-.03-.061-.077-.11-.14-.146-.095-.053-.194-.06-.295-.02-.102.04-.187.121-.255.241l-.011.02zm-.09-.09c.053-.092.118-.165.196-.219.077-.054.16-.083.25-.087.088-.004.174.018.257.065.128.072.206.176.234.31.029.135.001.276-.083.424l-.012.022c-.053.093-.118.167-.196.22-.078.055-.161.083-.25.087-.087.003-.173-.019-.256-.066-.127-.072-.205-.176-.234-.31-.029-.136-.001-.277.083-.425l.012-.021zM8.658 33.468c-.021-.016-.045-.03-.07-.043-.069-.034-.136-.044-.202-.03-.066.014-.128.053-.184.115l-.34.677-.11-.054.497-.987.106.054-.077.158c.117-.088.239-.1.366-.036.03.015.053.031.067.048l-.053.098zM9.855 34.676c.031-.076.029-.147-.007-.213-.035-.066-.116-.149-.242-.246-.126-.098-.212-.184-.259-.258-.066-.105-.077-.212-.033-.32.043-.105.121-.173.235-.204.113-.03.237-.018.372.037.091.037.166.088.224.152.058.065.094.137.108.216.014.08.005.158-.027.235l-.117-.048c.039-.094.037-.183-.004-.266-.04-.083-.115-.147-.224-.191-.105-.043-.198-.053-.28-.032-.082.022-.138.07-.169.146-.028.07-.023.139.015.206.038.067.112.142.222.226.11.084.189.157.238.22.049.062.079.124.09.188.012.064.004.13-.024.198-.044.109-.123.178-.236.208-.113.03-.24.017-.383-.04-.097-.04-.179-.094-.245-.161-.067-.068-.109-.142-.125-.221-.017-.08-.009-.16.024-.24l.116.047c-.04.097-.034.188.015.274.05.086.135.153.255.202.108.043.203.055.287.034.084-.02.142-.07.174-.149M10.83 34.325c-.087-.029-.17-.022-.252.022-.081.044-.146.118-.195.22l.628.212.004-.013c.03-.102.03-.193-.004-.275-.033-.081-.093-.136-.18-.166m-.31.994c-.09-.03-.163-.079-.22-.147-.057-.068-.092-.148-.106-.24-.014-.091-.004-.186.028-.283l.014-.042c.034-.1.084-.184.15-.252.066-.067.142-.113.227-.135.085-.023.168-.02.25.007.126.042.213.12.258.231.045.112.043.243-.007.393l-.022.065-.747-.25-.008.022c-.04.118-.039.228.003.33.041.102.114.17.217.205.062.02.12.028.175.021.055-.007.11-.028.166-.065l.054.08c-.127.094-.27.114-.433.06M11.952 34.685c-.024-.012-.05-.022-.078-.03-.073-.02-.14-.018-.203.01-.063.026-.116.075-.16.147l-.206.729-.117-.033.301-1.062.115.032-.046.17c.098-.108.216-.143.353-.104.033.01.057.02.074.035l-.033.106zM12.301 35.626L12.84 34.79 12.962 34.819 12.31 35.801 12.214 35.778 12.061 34.609 12.183 34.637zM13.206 34.537c.004-.022.015-.04.033-.053.018-.013.04-.017.065-.012.025.005.044.017.056.035.012.019.016.04.011.062-.004.022-.015.04-.033.052-.018.013-.04.016-.065.012-.025-.005-.044-.017-.056-.035-.011-.018-.015-.038-.01-.06zm-.126 1.425l-.12-.023.207-1.085.12.023-.207 1.085zM13.86 36.009c.084.012.158-.001.222-.04s.104-.096.12-.17l.116.017c-.014.066-.044.124-.09.173-.047.049-.104.084-.172.106-.068.021-.139.026-.211.016-.144-.022-.25-.088-.319-.2-.069-.113-.09-.253-.066-.42l.006-.037c.016-.108.049-.2.099-.277.05-.077.113-.133.19-.168s.163-.045.257-.03c.12.017.214.067.28.15.068.083.095.183.083.3l-.116-.017c.008-.086-.013-.16-.061-.22-.049-.061-.116-.098-.201-.111-.109-.016-.2.01-.272.08-.071.07-.118.176-.14.318l-.004.035c-.021.14-.007.253.041.34.049.087.128.138.238.155M15.06 35.207c-.092-.008-.172.018-.24.08-.07.06-.116.148-.14.26l.66.06.001-.014c.007-.106-.016-.195-.067-.266-.05-.072-.122-.112-.214-.12m-.072 1.038c-.093-.008-.176-.039-.247-.092-.071-.053-.124-.122-.159-.208-.034-.086-.047-.18-.038-.283l.004-.044c.01-.105.039-.199.087-.28.05-.08.112-.142.19-.184.077-.042.159-.059.244-.05.134.011.235.066.305.165.07.098.098.226.084.384l-.006.068-.785-.071-.002.023c-.011.125.015.232.079.321.064.09.15.14.259.15.065.005.123-.002.175-.02.052-.02.1-.054.146-.102l.071.065c-.101.12-.237.174-.407.158M17.23 35.471c-.002-.179-.045-.318-.127-.418-.083-.1-.195-.15-.336-.147-.138.002-.247.055-.327.158-.08.103-.12.246-.116.428l.002.155c.003.176.046.315.13.417.083.102.195.151.335.149.142-.002.252-.055.33-.158.078-.103.115-.245.112-.427l-.002-.157zm.129.16c.002.136-.02.256-.065.36-.046.105-.112.185-.199.243-.087.057-.188.086-.303.088-.173.003-.314-.057-.423-.18-.109-.122-.165-.288-.168-.5l-.003-.152c-.002-.135.02-.256.066-.36.047-.106.113-.188.2-.245.087-.058.187-.087.302-.09.114-.001.215.025.304.079.088.053.157.13.206.23.05.1.076.216.08.349l.003.177zM18.144 35.252c-.026-.003-.053-.004-.083-.002-.076.004-.139.03-.189.075-.05.045-.084.11-.102.191l.043.757-.12.007-.064-1.102.12-.007.011.175c.057-.134.157-.205.3-.213.034-.002.06 0 .081.008l.003.111zM18.437 35.69c.015.14.055.247.12.322.064.075.148.107.25.096.15-.016.248-.094.296-.235l-.054-.51c-.036-.067-.083-.116-.14-.148-.057-.031-.124-.043-.199-.035-.102.011-.177.06-.226.146-.048.086-.064.207-.047.364zm-.125-.009c-.018-.171.005-.312.07-.42.066-.109.164-.17.295-.184.15-.016.27.032.36.143l-.011-.16.113-.011.115 1.075c.015.142-.013.258-.083.349-.07.09-.174.143-.309.158-.076.008-.151-.002-.224-.028-.073-.027-.132-.067-.178-.12l.06-.08c.097.097.205.139.323.126.102-.01.178-.049.228-.115.05-.066.071-.152.062-.258l-.015-.138c-.066.116-.174.182-.323.198-.127.014-.234-.026-.322-.12-.088-.093-.141-.226-.16-.398l-.001-.017zM19.925 35.956c.08-.013.149-.045.206-.095.057-.05.094-.109.112-.179l-.04-.24-.216.037c-.12.022-.21.06-.27.113-.061.054-.085.119-.072.193.01.061.041.108.093.14.052.033.114.043.187.031zm.393.023c-.018-.032-.034-.081-.049-.148-.033.062-.08.114-.14.155-.06.04-.127.067-.2.08-.105.017-.195.002-.269-.046-.075-.047-.12-.115-.134-.205-.018-.106.012-.197.09-.273.077-.077.195-.128.353-.155l.218-.037-.02-.123c-.014-.078-.048-.136-.104-.172-.055-.037-.129-.047-.22-.032-.085.014-.15.048-.198.1-.048.052-.067.108-.056.169l-.121.019c-.015-.087.013-.168.082-.245.07-.077.164-.126.281-.145.122-.02.223-.007.303.042.08.05.13.128.15.236l.088.515c.017.106.042.183.073.231l.001.012-.128.022zM20.653 34.787l.047.183c.025-.076.064-.138.116-.187.052-.048.115-.081.187-.098.116-.027.209-.014.28.038.072.051.123.142.154.272l.163.706-.118.027-.164-.707c-.023-.096-.06-.162-.11-.2-.052-.038-.121-.047-.21-.026-.073.017-.133.055-.179.114-.046.06-.073.131-.082.216l.17.736-.118.028-.25-1.076.114-.026zM22.074 35.57l-.118.032-.296-1.064.118-.032.296 1.063zm-.52-1.333c-.006-.022-.004-.043.006-.062.01-.02.028-.033.053-.04.025-.007.047-.004.066.007.018.01.031.028.037.05.006.022.004.043-.006.062-.01.019-.029.032-.054.039-.025.007-.046.005-.065-.006-.018-.011-.03-.028-.037-.05zM22.473 35.346L23.156 35.127 23.188 35.225 22.361 35.491 22.334 35.405 22.693 34.336 22.075 34.534 22.043 34.433 22.807 34.188 22.835 34.275zM23.704 34.938c.076-.029.137-.074.183-.134.046-.06.07-.126.074-.198l-.088-.226-.204.078c-.113.046-.193.1-.242.166-.049.065-.06.132-.032.203.022.058.062.097.12.119.057.021.12.019.189-.008zm.39-.056c-.024-.028-.05-.073-.078-.135-.02.067-.055.127-.106.18-.051.051-.111.09-.18.118-.1.038-.19.041-.273.01-.082-.032-.14-.09-.173-.174-.038-.1-.027-.196.034-.287.06-.09.166-.164.315-.222l.207-.08-.046-.117c-.028-.073-.073-.123-.135-.147-.062-.025-.136-.02-.223.013-.08.03-.137.076-.173.137-.037.06-.044.12-.022.177l-.114.043c-.032-.082-.021-.168.032-.257.053-.09.135-.155.246-.198.115-.045.216-.05.305-.02.088.033.153.1.195.202l.188.487c.039.1.078.17.118.212l.004.011-.122.047zM24.136 33.356l.114.259.21-.093.04.092-.21.092.299.674c.025.056.053.093.085.111.033.019.073.018.12-.003.019-.009.047-.025.086-.05l.045.089c-.025.023-.062.046-.112.068-.077.034-.143.037-.197.008-.055-.03-.1-.087-.14-.174l-.297-.673-.186.082-.04-.092.185-.082-.114-.258.112-.05zM25.286 34.351l-.11.053-.478-.995.11-.053.478.995zm-.745-1.22c-.01-.02-.012-.042-.005-.063.006-.02.021-.036.044-.047.024-.012.046-.013.067-.006.02.008.036.022.045.043.01.02.012.041.005.062-.007.02-.023.037-.046.048-.023.01-.045.013-.065.005-.02-.007-.036-.021-.045-.042zM25.417 33.693c.063.116.144.196.244.238.1.043.2.038.297-.015.097-.052.156-.131.176-.238.02-.107-.002-.222-.067-.344l-.011-.02c-.04-.075-.09-.136-.15-.183-.062-.047-.126-.074-.194-.081-.068-.007-.134.006-.198.04-.096.052-.154.131-.174.239-.02.108.002.222.067.344l.01.02zm-.123.028c-.05-.094-.077-.188-.081-.282-.004-.094.016-.18.06-.257.044-.077.108-.138.192-.183.13-.07.259-.08.388-.032.129.047.233.146.314.296l.012.023c.05.094.077.188.081.283.004.095-.016.18-.06.256-.044.076-.109.137-.193.182-.13.07-.258.08-.387.032-.13-.048-.235-.146-.315-.296l-.011-.022zM26.217 32.6l.103.159c0-.08.016-.151.05-.214s.083-.114.146-.153c.1-.063.193-.08.278-.054.084.026.161.096.232.209l.38.616-.103.064-.381-.617c-.052-.084-.109-.135-.17-.155-.06-.02-.128-.005-.205.042-.065.04-.109.095-.134.166-.024.07-.027.148-.009.23l.397.644-.103.064-.58-.94.099-.06zM28.098 32.347c-.035-.05-.083-.076-.144-.078-.06-.002-.137.017-.23.056-.091.04-.167.064-.227.073-.06.009-.111.005-.155-.012-.044-.016-.082-.047-.113-.092-.05-.072-.062-.151-.035-.24.027-.088.087-.165.18-.23.1-.07.2-.103.295-.096.096.007.172.05.228.131l-.1.07c-.037-.052-.09-.08-.159-.085-.069-.004-.137.018-.204.065-.066.046-.108.098-.128.155-.019.057-.012.11.02.156.032.045.073.068.124.07.05.001.127-.018.229-.06.102-.04.183-.064.243-.072.06-.007.113-.002.157.016.044.018.083.05.115.097.054.077.066.16.036.248-.029.089-.093.168-.192.238-.106.074-.209.108-.31.103-.101-.005-.18-.046-.234-.124l.1-.07c.045.055.102.083.17.084.069 0 .14-.025.214-.078.07-.048.116-.103.137-.164.021-.06.016-.114-.017-.161M29.713 31.777L29.634 31.844 28.491 30.505 28.569 30.438zM30.855 29.771c-.047-.045-.1-.063-.156-.055-.058.01-.14.044-.25.106-.109.061-.204.102-.284.122-.156.04-.283.011-.381-.083-.086-.083-.124-.187-.112-.31.011-.125.071-.243.179-.356.071-.074.149-.128.232-.16.084-.032.167-.04.25-.025.083.016.155.053.217.112l-.178.186c-.056-.054-.117-.078-.182-.073-.065.004-.13.04-.192.105-.058.06-.09.12-.097.179-.006.058.014.11.06.155.04.037.09.05.151.04.062-.012.144-.047.25-.107.104-.06.197-.1.277-.12.08-.02.152-.022.216-.006.063.016.122.05.177.103.09.085.128.188.115.307-.013.119-.076.237-.188.354-.075.078-.157.135-.248.173-.092.038-.18.05-.265.038-.085-.013-.161-.051-.229-.116l.18-.186c.06.058.127.083.199.075.072-.008.144-.05.216-.125.062-.065.095-.126.1-.184.005-.058-.014-.107-.057-.149M31.07 28.707c-.044.052-.062.11-.052.172.009.063.042.126.1.19l.305-.36-.014-.013c-.067-.05-.13-.073-.187-.07-.058.002-.108.029-.153.081m.742.588c-.101.12-.221.186-.36.196-.139.011-.27-.037-.397-.143l-.023-.02c-.084-.07-.146-.15-.184-.239-.04-.088-.052-.178-.04-.268.013-.09.05-.17.11-.243.098-.115.21-.172.336-.173.126 0 .256.055.39.169l.076.064-.465.551c.074.053.15.077.224.07.075-.006.139-.04.191-.102.073-.087.098-.188.074-.301l.184-.02c.021.076.023.154.003.234-.02.08-.06.155-.119.225M31.879 27.762c-.025.023-.047.048-.068.075-.07.09-.081.178-.036.262l.6.458-.15.198-.878-.67.144-.189.102.07c-.04-.105-.028-.2.037-.285.021-.028.043-.048.064-.06l.185.141zM32.668 27.62L32.15 26.979 32.296 26.768 32.987 27.71 32.865 27.888 31.737 27.578 31.883 27.366zM33.447 27.005l-.132.21-.935-.589.133-.21.934.589zm-1.317-.519c-.033-.02-.053-.047-.061-.08-.009-.035-.001-.07.023-.109.024-.038.053-.06.087-.068.035-.007.068 0 .1.02s.052.047.06.08c.008.035 0 .07-.024.109-.024.038-.053.06-.087.068-.034.007-.067 0-.098-.02zM33.684 26.259c.03-.054.04-.108.029-.16-.011-.054-.039-.095-.084-.124l.116-.203c.059.037.104.087.135.151.032.065.046.135.042.212-.004.077-.025.15-.065.22-.076.133-.18.215-.312.244-.132.029-.274 0-.427-.088l-.022-.012c-.146-.084-.241-.19-.284-.317-.044-.128-.027-.26.05-.394.065-.114.152-.188.259-.222.107-.034.216-.022.326.036l-.115.203c-.057-.029-.113-.036-.168-.021-.056.015-.099.05-.13.104-.04.07-.045.138-.016.205.029.066.094.13.197.188l.034.02c.104.06.193.085.265.077.073-.009.13-.048.17-.12M33.548 24.918c-.03.061-.033.121-.01.18.025.058.073.112.144.16l.21-.424-.017-.008c-.077-.032-.143-.04-.198-.024-.056.016-.099.055-.13.116m.862.393c-.07.141-.17.233-.303.277-.132.044-.271.029-.419-.044l-.027-.014c-.1-.049-.178-.111-.237-.188-.059-.076-.093-.16-.102-.25-.01-.09.007-.178.05-.263.066-.134.16-.217.282-.248.123-.031.262-.008.42.07l.09.044-.32.647c.085.034.163.038.234.014.071-.024.125-.073.16-.145.051-.102.051-.205 0-.31l.174-.063c.04.068.06.144.059.226 0 .083-.02.165-.061.247M34.518 23.005c-.154-.058-.283-.074-.387-.047-.104.028-.176.094-.217.201-.04.105-.03.202.03.291.06.09.164.164.313.222l.08.03c.152.059.282.073.388.046.105-.028.178-.095.218-.2.041-.107.031-.205-.028-.293-.06-.089-.168-.163-.324-.222l-.073-.028zm.164-.214c.137.052.247.121.332.207.085.086.138.183.16.292.022.108.011.219-.032.333-.043.112-.108.202-.197.27-.088.067-.193.105-.312.114-.12.01-.247-.01-.38-.06l-.078-.03c-.136-.051-.246-.12-.332-.208-.085-.087-.139-.185-.16-.293-.023-.109-.012-.22.03-.333.044-.113.11-.203.197-.27.087-.067.191-.104.311-.113.12-.01.248.011.384.062l.077.03zM34.76 21.95c-.015.03-.027.061-.038.095-.034.108-.015.194.056.258l.72.226-.073.236-1.054-.33.07-.226.12.031c-.073-.086-.094-.18-.062-.28.01-.034.024-.06.04-.08l.221.07zM35.181 21.704c.107.028.198.028.27 0 .073-.028.12-.081.14-.159.025-.096.002-.179-.069-.247l-.47-.122c-.093.025-.152.085-.177.182-.02.08-.005.149.046.209.052.06.138.105.26.137m-.082.234c-.167-.043-.289-.117-.368-.22-.079-.104-.102-.22-.068-.35.031-.121.099-.206.202-.254l-.105-.039.056-.216 1.036.268c.14.036.24.109.298.217.059.108.069.236.03.384-.02.079-.056.151-.108.217-.052.067-.11.113-.172.138l-.115-.151c.107-.051.174-.13.202-.239.02-.08.015-.148-.016-.205-.031-.058-.089-.097-.172-.119l-.072-.018c.059.089.074.19.044.306-.033.125-.109.215-.229.268-.12.054-.268.058-.443.013M35.851 20.415c.01-.048.006-.096-.009-.143-.015-.047-.04-.085-.076-.114l-.204-.04-.025.132c-.018.09-.015.161.008.212.022.052.062.083.12.094.046.01.087.001.12-.025.034-.025.056-.064.066-.116zm.227-.234c-.023.007-.058.01-.107.009.066.093.088.195.067.307-.021.11-.07.192-.145.249-.075.057-.159.076-.25.059-.116-.023-.196-.083-.241-.18-.046-.098-.053-.227-.022-.387l.029-.149-.071-.013c-.056-.011-.104-.004-.144.02-.04.025-.066.07-.078.134-.011.055-.006.103.015.144.02.041.053.066.095.074l-.047.243c-.06-.011-.111-.042-.155-.091-.044-.05-.074-.11-.09-.184-.017-.074-.017-.152-.001-.236.025-.127.076-.222.154-.285.079-.063.176-.085.292-.064l.489.094c.097.02.178.02.241.004l.017.004-.048.248zM35.104 19.292l.127.01c-.087-.095-.122-.207-.105-.339.03-.228.176-.327.437-.297l.724.094-.032.246-.71-.092c-.07-.01-.122 0-.16.025-.037.026-.06.072-.069.14-.013.1.022.18.106.24l.779.101-.032.246-1.095-.143.03-.231zM36.333 18.204l-.02.247-1.1-.093.02-.247 1.1.093zm-1.408.145c-.038-.003-.068-.018-.091-.044-.023-.026-.033-.062-.03-.107.005-.044.02-.078.047-.1.027-.022.06-.032.098-.029.037.003.067.018.09.045.023.026.032.062.028.107-.004.044-.019.078-.046.1-.026.022-.058.031-.096.028zM36.172 17.623L36.197 17.036 36.395 17.044 36.357 17.939 36.195 17.933 35.477 17.341 35.454 17.891 35.254 17.882 35.291 17.019 35.448 17.025zM36.214 16.408c-.001-.049-.014-.095-.038-.138-.025-.042-.057-.074-.098-.096l-.208.004.002.134c.002.091.019.16.052.206.032.046.078.068.136.067.048 0 .086-.017.113-.05.028-.031.042-.074.04-.127zm.174-.275c-.021.011-.055.021-.103.03.084.078.126.173.128.288.002.11-.028.202-.09.273-.062.07-.14.107-.233.109-.118.001-.209-.04-.273-.127-.064-.087-.098-.211-.1-.374l-.003-.152-.072.002c-.057 0-.103.017-.137.05-.034.032-.05.081-.049.146 0 .057.016.103.045.139.028.035.065.053.108.052l.004.248c-.06 0-.117-.018-.17-.058-.054-.039-.096-.093-.127-.161-.031-.069-.048-.146-.05-.23-.001-.13.03-.233.093-.311.064-.078.155-.12.272-.123l.498-.008c.1-.002.179-.017.237-.046h.018l.004.253zM34.98 15.397l.267-.017-.012-.194.183-.012.013.195.615-.039c.042-.003.072-.013.09-.03.017-.018.024-.049.022-.091-.002-.029-.007-.058-.016-.086l.192-.012c.019.055.03.109.033.161.012.19-.087.292-.297.305l-.624.039.011.181-.183.012-.011-.181-.268.016-.016-.247zM36.292 14.635l.024.247-1.1.104-.023-.246 1.1-.105zm-1.36.394c-.037.004-.07-.005-.097-.027-.028-.022-.043-.055-.048-.1-.004-.044.005-.08.028-.107.023-.027.053-.042.091-.045.037-.004.07.005.096.027.028.022.043.056.047.1.005.045-.004.08-.027.107-.022.026-.052.041-.09.045zM35.7 14.2c.112-.016.197-.051.254-.107.057-.055.08-.124.068-.207-.012-.083-.053-.143-.125-.18-.071-.037-.169-.047-.293-.029-.11.016-.195.052-.253.109-.058.056-.081.125-.07.207.012.08.053.14.123.177.07.038.169.048.295.03zm.013.249c-.107.015-.206.008-.298-.023-.092-.03-.167-.08-.224-.15-.057-.07-.092-.155-.107-.255-.02-.148.01-.274.092-.38.082-.105.2-.172.357-.202l.057-.01c.108-.015.207-.008.298.022.09.03.165.08.222.15.058.07.093.156.108.257.022.154-.012.285-.102.392-.09.107-.22.173-.39.197l-.013.002zM34.95 13.088l.124-.032c-.114-.06-.184-.155-.21-.285-.047-.225.058-.367.315-.424l.715-.148.05.243-.7.145c-.07.014-.117.04-.144.076-.027.037-.033.088-.02.156.021.098.08.161.18.191l.768-.16.05.244-1.08.223-.048-.229zM35.37 11.38c-.044.011-.071.038-.084.079-.013.041-.017.105-.012.19.005.087.002.16-.01.222-.025.135-.093.218-.202.247-.092.025-.18.007-.262-.053-.083-.061-.14-.151-.173-.27-.034-.128-.03-.24.011-.335.042-.096.113-.157.214-.184l.064.24c-.046.011-.08.039-.1.081-.022.043-.025.092-.01.149.015.052.038.092.072.118.033.027.07.035.11.024.037-.01.062-.033.074-.07.012-.036.016-.104.01-.204-.004-.1 0-.18.015-.24.014-.062.037-.11.07-.148.033-.036.079-.063.136-.078.096-.026.184-.007.265.056.08.063.139.16.173.288.024.088.03.17.016.246-.013.077-.042.142-.087.195-.044.053-.098.088-.162.105l-.063-.232c.055-.018.093-.052.113-.1.02-.047.021-.103.003-.168-.017-.063-.042-.108-.074-.134-.033-.027-.07-.035-.108-.024" transform="translate(-556 -7415) translate(556 7415) translate(4.682 4.897)" />
					<path fill="#636670" d="M6.441 11.68h2.67L7.776 8.052 6.441 11.68zm2.849.475H6.267l-.686 1.87h-.59l2.52-6.657h.535l2.52 6.657H9.98l-.69-1.87zM11.574 14.025L12.136 14.025 12.136 7.367 11.574 7.367zM18.563 11.95c-.077.7-.327 1.237-.752 1.609-.426.372-.992.557-1.7.557-.493 0-.93-.123-1.31-.37-.379-.247-.672-.597-.88-1.05-.207-.452-.312-.97-.315-1.552v-.864c0-.591.104-1.116.311-1.573.207-.457.505-.81.894-1.058.389-.249.836-.373 1.342-.373.713 0 1.276.192 1.69.576.413.384.653.916.72 1.596h-.567c-.14-1.13-.755-1.696-1.843-1.696-.604 0-1.084.225-1.443.677-.358.451-.537 1.075-.537 1.871v.815c0 .769.175 1.382.524 1.84.349.457.82.686 1.415.686.588 0 1.032-.141 1.33-.423.299-.282.483-.705.554-1.269h.567zM20.399 10.838h1.705c.546 0 .962-.13 1.248-.39.287-.259.43-.62.43-1.085 0-.46-.142-.828-.427-1.1-.285-.274-.69-.414-1.214-.42h-1.742v2.995zm0 .476v2.711h-.563V7.368h2.268c.692 0 1.239.176 1.64.53.4.354.6.84.6 1.459 0 .624-.192 1.107-.578 1.447-.386.34-.944.51-1.676.51H20.4zM25.623 11.68h2.67l-1.335-3.627-1.335 3.626zm2.848.475H25.45l-.686 1.87h-.59l2.52-6.657h.535l2.52 6.657h-.586l-.69-1.87zM13.09 23.2c0-.368-.13-.66-.39-.875-.259-.215-.732-.42-1.421-.613-.69-.193-1.192-.404-1.51-.633-.45-.323-.676-.747-.676-1.271 0-.51.21-.923.629-1.242.419-.318.955-.477 1.607-.477.442 0 .838.085 1.187.256.349.17.62.408.811.713.192.305.288.645.288 1.02h-.567c0-.456-.155-.822-.466-1.099-.311-.276-.729-.415-1.253-.415-.51 0-.915.114-1.216.341-.302.228-.453.525-.453.891 0 .339.136.615.407.829.271.214.706.402 1.303.566.598.163 1.05.332 1.358.508.308.175.54.384.695.628.156.244.233.532.233.864 0 .525-.21.945-.628 1.262-.42.318-.972.476-1.658.476-.47 0-.9-.084-1.291-.252-.392-.167-.69-.402-.892-.704-.203-.301-.304-.647-.304-1.038h.562c0 .47.175.84.526 1.111.35.272.817.407 1.4.407.517 0 .933-.114 1.247-.342.314-.23.471-.532.471-.91M19.132 21.148c0-.802-.181-1.43-.544-1.884-.363-.455-.86-.682-1.49-.682-.62 0-1.113.228-1.48.684-.367.456-.55 1.092-.55 1.909v.695c0 .79.182 1.415.548 1.877.366.462.862.693 1.49.693.637 0 1.134-.228 1.491-.684.357-.456.535-1.09.535-1.904v-.704zm.562.722c0 .613-.106 1.15-.317 1.614-.212.463-.515.82-.908 1.07-.393.25-.847.375-1.363.375-.777 0-1.405-.278-1.883-.835-.479-.556-.718-1.306-.718-2.251v-.686c0-.607.107-1.144.322-1.612.215-.468.52-.828.912-1.08.393-.25.846-.377 1.358-.377.512 0 .964.124 1.356.371.392.247.694.596.908 1.047.213.451.324.974.333 1.568v.796zM25.732 22.762c-.076.7-.327 1.237-.752 1.61-.425.371-.991.557-1.699.557-.493 0-.93-.124-1.31-.37-.38-.247-.672-.597-.88-1.05-.207-.452-.312-.97-.315-1.552v-.864c0-.592.103-1.116.31-1.573.208-.457.506-.81.895-1.059.388-.248.836-.372 1.342-.372.713 0 1.276.192 1.69.576.412.384.652.916.72 1.596h-.568c-.14-1.131-.754-1.697-1.842-1.697-.604 0-1.085.226-1.443.677-.358.452-.537 1.076-.537 1.872v.814c0 .77.174 1.382.523 1.84.35.458.821.686 1.415.686.589 0 1.032-.14 1.33-.423.3-.281.484-.704.554-1.268h.567z" transform="translate(-556 -7415) translate(556 7415) translate(4.682 4.897)" />
					<path stroke="#636670" stroke-linecap="round" stroke-linejoin="round" stroke-width=".5" d="M4.513 16.189L29.889 16.189" transform="translate(-556 -7415) translate(556 7415) translate(4.682 4.897)" />
					<path fill="#636670" d="M8.458 28.179c.069 0 .134-.018.196-.054.061-.035.106-.082.134-.138v-.264h-.172c-.27 0-.404.079-.404.236 0 .07.023.123.07.162.045.038.104.058.176.058zm.364.167c-.013-.025-.023-.07-.03-.135-.103.106-.224.159-.366.159-.127 0-.23-.036-.311-.108-.082-.071-.122-.162-.122-.272 0-.134.05-.237.152-.311.102-.074.245-.111.43-.111h.213v-.101c0-.077-.023-.138-.07-.183-.045-.046-.113-.069-.202-.069-.078 0-.144.02-.197.06-.053.04-.08.087-.08.143h-.22c0-.064.023-.126.068-.185.046-.06.107-.107.185-.142.078-.035.164-.052.257-.052.148 0 .264.037.348.11.084.075.127.176.13.306v.59c0 .119.015.212.045.282v.019h-.23zM9.31 28.346h.219v-1.284h-.22v1.284zm-.018-1.624c0-.036.01-.066.032-.09.022-.025.054-.037.097-.037.043 0 .075.012.097.037.022.024.033.054.033.09 0 .035-.01.065-.033.089-.022.024-.054.035-.097.035-.043 0-.075-.011-.097-.035-.021-.024-.032-.054-.032-.09zM10.334 28.19c.079 0 .147-.023.206-.07.058-.048.09-.107.097-.179h.208c-.005.074-.03.144-.077.21-.046.067-.108.12-.186.16-.078.039-.16.059-.248.059-.175 0-.314-.059-.417-.175-.103-.117-.155-.276-.155-.479v-.037c0-.125.023-.236.07-.333.045-.097.111-.173.197-.227.086-.053.187-.08.304-.08.144 0 .264.043.359.129.095.086.146.198.153.336h-.208c-.007-.083-.038-.152-.095-.205-.056-.053-.126-.08-.209-.08-.111 0-.198.04-.26.12-.06.08-.091.197-.091.349v.041c0 .148.03.262.091.342.061.08.148.12.261.12M11.895 27.694c0-.145-.03-.26-.092-.343-.062-.084-.146-.126-.254-.126-.133 0-.233.059-.299.177v.613c.066.117.166.176.301.176.106 0 .19-.042.251-.126.062-.083.093-.207.093-.371zm.22.024c0 .196-.045.353-.134.473-.09.119-.21.179-.363.179-.156 0-.279-.05-.368-.149v.619h-.22v-1.778h.2l.012.143c.089-.111.213-.166.372-.166.154 0 .276.058.366.174.09.116.135.278.135.485v.02zM12.761 28.179c.069 0 .134-.018.196-.054.062-.035.106-.082.134-.138v-.264h-.172c-.269 0-.403.079-.403.236 0 .07.022.123.068.162.046.038.105.058.177.058zm.364.167c-.012-.025-.023-.07-.03-.135-.103.106-.224.159-.366.159-.126 0-.23-.036-.311-.108-.081-.071-.122-.162-.122-.272 0-.134.05-.237.153-.311.101-.074.244-.111.428-.111h.214v-.101c0-.077-.023-.138-.069-.183-.046-.046-.113-.069-.203-.069-.078 0-.144.02-.197.06-.053.04-.08.087-.08.143h-.22c0-.064.023-.126.068-.185.046-.06.108-.107.185-.142.078-.035.164-.052.257-.052.148 0 .264.037.348.11.084.075.127.176.13.306v.59c0 .119.015.212.046.282v.019h-.23zM13.599 28.23c0-.037.01-.069.033-.094.023-.025.057-.038.102-.038.045 0 .08.013.102.038.024.025.035.057.035.095 0 .036-.011.067-.035.091-.023.025-.057.037-.102.037-.045 0-.08-.012-.102-.037-.022-.024-.033-.055-.033-.091M14.335 27.718c0 .143.033.257.1.343.065.087.154.13.264.13.112 0 .2-.044.266-.131.066-.088.098-.21.098-.368 0-.14-.033-.255-.1-.342-.067-.087-.155-.131-.266-.131-.108 0-.196.043-.262.13-.067.085-.1.209-.1.37zm-.22-.026c0-.125.024-.239.074-.339.049-.1.118-.178.206-.233.088-.054.189-.081.302-.081.175 0 .316.06.424.181.108.121.162.282.162.483v.015c0 .125-.024.237-.072.337-.048.1-.116.176-.205.232-.089.055-.191.083-.307.083-.174 0-.315-.06-.423-.182-.108-.12-.162-.281-.162-.48v-.016zM16.118 27.26c-.033-.006-.07-.009-.108-.009-.144 0-.242.061-.293.184v.911h-.22v-1.284h.214l.004.149c.072-.115.174-.172.306-.172.042 0 .075.005.097.016v.204zM16.405 27.718c0 .145.03.259.089.342.06.082.142.124.249.124.139 0 .24-.063.305-.19v-.585c-.067-.123-.168-.184-.302-.184-.107 0-.19.041-.251.124-.06.083-.09.207-.09.37m-.22-.025c0-.2.046-.36.138-.478.093-.118.215-.177.368-.177.157 0 .279.055.366.166l.011-.143h.2v1.253c0 .166-.049.297-.147.393-.098.096-.23.143-.397.143-.092 0-.183-.02-.272-.059-.088-.04-.156-.094-.202-.162l.113-.132c.095.116.21.174.346.174.106 0 .19-.03.25-.09s.09-.145.09-.254v-.11c-.089.101-.209.152-.36.152-.15 0-.272-.06-.365-.182-.093-.12-.14-.286-.14-.494M17.583 28.494L17.394 28.494 18.115 26.619 18.303 26.619zM19.227 28.006c0-.06-.023-.106-.067-.139-.045-.032-.123-.06-.234-.085-.11-.023-.2-.052-.264-.085-.066-.033-.114-.073-.145-.119-.032-.045-.047-.1-.047-.163 0-.105.044-.194.133-.267.09-.073.203-.11.342-.11.145 0 .263.038.354.113.09.075.136.172.136.289h-.221c0-.06-.026-.112-.077-.156-.05-.043-.115-.065-.192-.065-.08 0-.143.017-.188.052-.045.035-.067.08-.067.137 0 .053.02.093.062.12.042.026.118.052.228.077.11.024.198.053.266.087.068.034.118.075.151.123s.05.106.05.175c0 .115-.046.207-.138.276-.092.07-.211.104-.357.104-.103 0-.194-.018-.273-.055-.08-.036-.141-.087-.186-.152-.045-.066-.067-.136-.067-.212h.22c.003.074.033.132.088.175.055.043.128.065.218.065.083 0 .15-.017.2-.05.05-.034.075-.08.075-.135M19.834 27.718c0 .143.033.257.1.343.065.087.154.13.264.13.112 0 .2-.044.266-.131.066-.088.098-.21.098-.368 0-.14-.033-.255-.1-.342-.067-.087-.155-.131-.266-.131-.108 0-.196.043-.262.13-.067.085-.1.209-.1.37zm-.22-.026c0-.125.024-.239.074-.339.049-.1.118-.178.206-.233.088-.054.189-.081.302-.081.175 0 .316.06.424.181.108.121.162.282.162.483v.015c0 .125-.024.237-.072.337-.048.1-.116.176-.205.232-.089.055-.191.083-.307.083-.174 0-.315-.06-.423-.182-.108-.12-.162-.281-.162-.48v-.016zM21.511 28.19c.079 0 .147-.023.206-.07.058-.048.09-.107.097-.179h.208c-.004.074-.03.144-.076.21-.047.067-.11.12-.187.16-.078.039-.16.059-.248.059-.174 0-.313-.059-.417-.175-.103-.117-.154-.276-.154-.479v-.037c0-.125.023-.236.068-.333.046-.097.112-.173.198-.227.086-.053.187-.08.304-.08.144 0 .264.043.36.129.095.086.145.198.152.336h-.208c-.006-.083-.038-.152-.094-.205-.057-.053-.127-.08-.21-.08-.111 0-.198.04-.259.12-.061.08-.092.197-.092.349v.041c0 .148.03.262.091.342.061.08.148.12.261.12M22.353 27.766h.538v-.847l-.026.047-.512.8zm.759 0h.24v.179h-.24v.401h-.221v-.401h-.787v-.13l.774-1.196h.234v1.147zM24.259 28.006c0-.06-.023-.106-.067-.139-.045-.032-.123-.06-.234-.085-.111-.023-.2-.052-.265-.085-.065-.033-.113-.073-.145-.119-.03-.045-.046-.1-.046-.163 0-.105.044-.194.133-.267.09-.073.203-.11.341-.11.146 0 .264.038.354.113.09.075.136.172.136.289h-.22c0-.06-.026-.112-.077-.156-.05-.043-.115-.065-.193-.065-.08 0-.142.017-.187.052-.045.035-.068.08-.068.137 0 .053.021.093.063.12.042.026.118.052.227.077.11.024.199.053.267.087.068.034.118.075.15.123.034.048.05.106.05.175 0 .115-.046.207-.138.276-.091.07-.21.104-.357.104-.102 0-.193-.018-.272-.055-.08-.036-.142-.087-.186-.152-.045-.066-.067-.136-.067-.212h.22c.003.074.033.132.088.175.055.043.127.065.217.065.083 0 .15-.017.2-.05.05-.034.076-.08.076-.135M24.866 27.718c0 .143.033.257.099.343.066.087.154.13.265.13.112 0 .2-.044.266-.131.066-.088.098-.21.098-.368 0-.14-.033-.255-.1-.342-.067-.087-.156-.131-.266-.131-.109 0-.196.043-.262.13-.067.085-.1.209-.1.37zm-.22-.026c0-.125.024-.239.073-.339.05-.1.119-.178.207-.233.088-.054.189-.081.302-.081.174 0 .316.06.424.181.108.121.162.282.162.483v.015c0 .125-.024.237-.072.337-.048.1-.116.176-.205.232-.09.055-.191.083-.307.083-.174 0-.315-.06-.423-.182-.108-.12-.162-.281-.162-.48v-.016z" transform="translate(-556 -7415) translate(556 7415) translate(4.682 4.897)" />
				</g>
				<text fill="#636670" font-family="MyriadPro-Regular, Myriad Pro" font-size="3.3" transform="translate(-556 -7415) translate(556 7415)">
					<tspan x="38.858" y="39.399">
						™
					</tspan>
				</text>
			</g>
		</g>
	</g>
</svg>
