<svg xmlns="http://www.w3.org/2000/svg" width="24" height="24"><path d="M23 6.013c-.78.34-1.613.567-2.48.677a4.268 4.268 0 0 0 1.893-2.37 8.622 8.622 0 0 1-2.73 1.037A4.324 4.324 0 0 0 16.54 4a4.296 4.296 0 0 0-4.303 4.29c0 .34.03.667.1.979a12.2 12.2 0 0 1-8.875-4.487 4.311 4.311 0 0 0-.59 2.168c0 1.486.769 2.803 1.913 3.565a4.263 4.263 0 0 1-1.945-.528v.047c0 2.084 1.492 3.816 3.45 4.214a4.298 4.298 0 0 1-1.13.142c-.275 0-.553-.016-.815-.074a4.342 4.342 0 0 0 4.023 2.988 8.668 8.668 0 0 1-5.338 1.83A8.12 8.12 0 0 1 2 19.075 12.154 12.154 0 0 0 8.604 21c7.923 0 12.254-6.538 12.254-12.206 0-.19-.007-.373-.016-.554A8.59 8.59 0 0 0 23 6.013z" fill="#7E7D93"/></svg>