<svg xmlns="http://www.w3.org/2000/svg" width="24" height="24" viewBox="0 0 24 24">
	<g fill="#2F2D51">
		<path d="M21 2.013c-.78.34-1.613.567-2.48.677.892-.531 1.573-1.365 1.893-2.37-.832.493-1.75.843-2.73 1.037C16.893.52 15.767 0 14.54 0c-2.384 0-4.303 1.928-4.303 4.29 0 .34.03.667.1.979C6.756 5.095 3.59 3.386 1.462.782c-.371.642-.59 1.377-.59 2.168 0 1.486.769 2.803 1.913 3.565-.692-.013-1.37-.213-1.945-.528v.047c0 2.084 1.492 3.816 3.45 4.214-.351.096-.733.142-1.13.142-.275 0-.553-.016-.815-.074.558 1.7 2.141 2.948 4.023 2.988-1.465 1.142-3.324 1.83-5.338 1.83-.353 0-.691-.016-1.03-.059C1.907 16.3 4.167 17 6.604 17c7.923 0 12.254-6.538 12.254-12.206 0-.19-.007-.373-.016-.554.855-.605 1.573-1.36 2.158-2.227z" transform="translate(-586 -3258) translate(586 3258) translate(2 4)" />
	</g>
</svg>
